*
*
G04 PADS Layout (Build Number 2007.42.1) generated Gerber (RS-274-X) file*
G04 PC Version=2.1*
*
%IN "vstupenka.pcb"*%
*
%MOIN*%
*
%FSLAX35Y35*%
*
*
*
*
G04 PC Standard Apertures*
*
*
G04 Thermal Relief Aperture macro.*
%AMTER*
1,1,$1,0,0*
1,0,$1-$2,0,0*
21,0,$3,$4,0,0,45*
21,0,$3,$4,0,0,135*
%
*
*
G04 Annular Aperture macro.*
%AMANN*
1,1,$1,0,0*
1,0,$2,0,0*
%
*
*
G04 Odd Aperture macro.*
%AMODD*
1,1,$1,0,0*
1,0,$1-0.005,0,0*
%
*
*
G04 PC Custom Aperture Macros*
*
*
*
*
*
*
G04 PC Aperture Table*
*
%ADD036C,0.008*%
*
*
*
*
G04 PC Copper Outlines (0)*
G04 Layer Name vstupenka.pcb - dark (0)*
%LPD*%
*
*
G04 PC Area=Custom_Thermal*
*
G04 PC Custom Flashes*
G04 Layer Name vstupenka.pcb - flashes*
%LPD*%
*
*
G04 PC Circuitry*
G04 Layer Name vstupenka.pcb - circuitry*
%LPD*%
*
G54D36*
G01X239405Y243980D02*
X251311Y250301D01*
X251699Y249552*
X252077Y248794*
X252445Y248028*
X252802Y247255*
X253149Y246474*
X253485Y245685*
X253811Y244891*
X253811D02*
X254125Y244089D01*
X254125D02*
X254429Y243282D01*
X254429D02*
X254722Y242469D01*
X255004Y241651*
X255274Y240827*
X255533Y239999*
X255780Y239167*
X256016Y238331*
X256240Y237491*
X256240D02*
X256452Y236647D01*
X256652Y235801*
X256840Y234952*
X256840D02*
X257016Y234101D01*
X257180Y233248*
X257331Y232393*
X257470Y231537*
X257596Y230680*
X257709Y229823*
X257809Y228965*
X257896Y228108*
X257896D02*
X257970Y227250D01*
X258031Y226394*
X258079Y225539*
X258113Y224685*
X258133Y223833*
X258140Y222984*
X258140D02*
X258134Y222135D01*
X258115Y221285*
X258084Y220434*
X258040Y219583*
X258040D02*
X257984Y218731D01*
X257916Y217880*
X257835Y217029*
X257742Y216178*
X257637Y215329*
X257520Y214480*
X257390Y213633*
X257248Y212788*
X257094Y211945*
X256929Y211104*
X256929D02*
X256751Y210265D01*
X256561Y209429*
X256359Y208596*
X256145Y207766*
X255920Y206940*
X255682Y206118*
X255433Y205299*
X255172Y204485*
X254900Y203676*
X254616Y202871*
X254320Y202072*
X254012Y201278*
X253693Y200490*
X253362Y199707*
X253362D02*
X253020Y198931D01*
X252667Y198161*
X252302Y197398*
X251926Y196642*
X251538Y195893*
X239489Y202210*
X155183Y187032D02*
X144147Y177887D01*
X143639Y178530*
X143639D02*
X143138Y179178D01*
X143138D02*
X142645Y179833D01*
X142159Y180494*
X141681Y181160*
X141210Y181832*
X140746Y182510*
X140290Y183194*
X140290D02*
X139842Y183882D01*
X139401Y184576*
X139401D02*
X138968Y185276D01*
X138968D02*
X138543Y185980D01*
X138126Y186689*
X137716Y187404*
X137716D02*
X137315Y188123D01*
X136921Y188846*
X136535Y189574*
X136158Y190307*
X135788Y191045*
X135788D02*
X135427Y191786D01*
X135074Y192531*
X134729Y193281*
X134729D02*
X134393Y194034D01*
X134064Y194791*
X134064D02*
X133745Y195552D01*
X133433Y196317*
X133433D02*
X133131Y197085D01*
X132836Y197856*
X132550Y198631*
X132274Y199409*
X132005Y200190*
X131746Y200974*
X131494Y201761*
X131253Y202550*
X131020Y203343*
X131020D02*
X130795Y204137D01*
X130580Y204934*
X130374Y205734*
X130177Y206536*
X129989Y207340*
X129810Y208146*
X129641Y208954*
X129641D02*
X129481Y209763D01*
X129330Y210574*
X129188Y211387*
X129056Y212202*
X128933Y213018*
X128820Y213835*
X128717Y214653*
X128623Y215472*
X128539Y216293*
X128539D02*
X128464Y217113D01*
X128464D02*
X128400Y217935D01*
X128345Y218758*
X128300Y219581*
X128265Y220404*
X128240Y221228*
X128224Y222052*
X128219Y222876*
X128224Y223700*
X128240Y224524*
X128265Y225348*
X128300Y226171*
X128345Y226994*
X128400Y227817*
X128400D02*
X128464Y228638D01*
X128464D02*
X128539Y229459D01*
X128623Y230280*
X128623D02*
X128717Y231099D01*
X128820Y231917*
X128933Y232734*
X129056Y233550*
X129188Y234365*
X129188D02*
X129330Y235178D01*
X129330D02*
X129481Y235989D01*
X129465Y235987*
X129449Y235986*
X129432Y235984*
X128822Y236080*
X128822D02*
X128295Y236526D01*
X128260Y237422*
X128547Y238047*
X129165Y238527*
X129165D02*
X130018Y238558D01*
X130018D02*
X130177Y239216D01*
X130374Y240018*
X130580Y240817*
X130795Y241615*
X130795D02*
X131020Y242409D01*
X131253Y243202*
X131253D02*
X131494Y243991D01*
X131746Y244778*
X132005Y245562*
X132274Y246343*
X132550Y247121*
X132836Y247896*
X133131Y248667*
X133433Y249435*
X133745Y250200*
X134064Y250961*
X134064D02*
X134393Y251718D01*
X134729Y252471*
X134729D02*
X135074Y253221D01*
X135427Y253966*
X135788Y254708*
X135788D02*
X136158Y255445D01*
X136158D02*
X136535Y256177D01*
X136921Y256906*
X136921D02*
X137315Y257629D01*
X137716Y258348*
X137716D02*
X138126Y259063D01*
X138543Y259772*
X138968Y260476*
X138968D02*
X139401Y261176D01*
X139401D02*
X139842Y261870D01*
X140290Y262558*
X140290D02*
X140746Y263242D01*
X141210Y263919*
X141681Y264592*
X142159Y265258*
X142645Y265919*
X143138Y266574*
X143138D02*
X143639Y267222D01*
X144147Y267865*
X144147D02*
X156101Y258193D01*
X142759Y193590D02*
X140777Y192492D01*
X140867Y192327*
X141433Y192432*
X141957Y192421*
X142442Y192294*
X142866Y192069*
X142866D02*
X143216Y191762D01*
X143216D02*
X143491Y191375D01*
X143650Y191009*
X143728Y190625*
Y190222*
X143651Y189825*
X143651D02*
X143504Y189458D01*
X143504D02*
X143284Y189120D01*
X142925Y188729*
X142501Y188378*
X142501D02*
X142014Y188069D01*
X142014D02*
X141505Y187815D01*
X141505D02*
X141003Y187622D01*
X140507Y187488*
X140035Y187428*
X140035D02*
X139605Y187454D01*
X139605D02*
X139217Y187567D01*
X138870Y187770*
X138564Y188068*
X138300Y188460*
X138132Y188824*
X138028Y189198*
X137988Y189581*
X138014Y189994*
X138110Y190460*
X138276Y190980*
X138276D02*
X137782Y190706D01*
X137782D02*
X137659Y190212D01*
X137601Y189743*
X137601D02*
X137611Y189300D01*
X137688Y188863*
X137688D02*
X137838Y188415D01*
X138060Y187956*
X138060D02*
X138426Y187391D01*
X138849Y186917*
X139329Y186533*
X139852Y186251*
X140406Y186080*
X140992Y186020*
X141579Y186066*
X142139Y186208*
X142670Y186446*
X143180Y186791*
X143618Y187221*
X143618D02*
X143985Y187736D01*
X144262Y188306*
X144262D02*
X144429Y188901D01*
X144485Y189523*
X144435Y190143*
X144284Y190733*
X144031Y191294*
X143775Y191688*
X143775D02*
X143453Y192065D01*
X143453D02*
X143064Y192424D01*
X142853Y192605*
X142853D02*
X142711Y192742D01*
X142637Y192834*
X142601Y192926*
X142591Y193022*
X142607Y193122*
X142654Y193225*
X142735Y193326*
X142850Y193426*
X142759Y193590*
X144553Y190915D02*
X146636Y190957D01*
X146459Y191276*
X145030Y191802*
X145301Y193305*
X145109Y193650*
X144024Y191868*
X144553Y190915*
X136967Y195997D02*
X137973Y193737D01*
X137436Y193576*
X136938Y193530*
X136938D02*
X136482Y193596D01*
X136183Y193721*
X135953Y193911*
X135791Y194164*
X135731Y194343*
X135731D02*
X135709Y194525D01*
X135725Y194710*
X135785Y194913*
X135893Y195146*
X136049Y195410*
X135887Y195516*
X135579Y195102*
X135366Y194712*
X135249Y194345*
X135217Y193991*
X135262Y193636*
X135383Y193280*
X135711Y192753*
X136152Y192395*
X136152D02*
X136707Y192206D01*
X136707D02*
X137210Y192177D01*
X137736Y192259*
X138285Y192454*
X138898Y192801*
X139363Y193231*
X139679Y193743*
X139679D02*
X139843Y194287D01*
X139852Y194814*
X139707Y195322*
X139473Y195695*
X139140Y195982*
X139140D02*
X138711Y196180D01*
X138197Y196263*
X137616Y196202*
X137616D02*
X136967Y195997D01*
X137744Y195045D02*
X138172Y195225D01*
X138509Y195344*
X138754Y195401*
X138943Y195412*
X139112Y195392*
X139261Y195340*
X139335Y195291*
X139335D02*
X139399Y195220D01*
X139450Y195129*
X139489Y194973*
X139470Y194815*
X139392Y194654*
X139392D02*
X139162Y194379D01*
X139162D02*
X138843Y194132D01*
X138433Y193915*
X138433D02*
X138278Y193846D01*
X137744Y195045*
X137659Y200339D02*
X136196Y199855D01*
X136255Y199701*
X136707Y199662*
X137072Y199584*
X137348Y199467*
X137348D02*
X137554Y199320D01*
X137707Y199154*
X137809Y198969*
X137839Y198847*
X137838Y198726*
X137805Y198606*
X137746Y198500*
X137667Y198420*
X137569Y198365*
X137485Y198345*
X137395*
X137300Y198367*
X137089Y198461*
X136774Y198649*
X136357Y198930*
X136357D02*
X135924Y199211D01*
X135559Y199405*
X135262Y199509*
X135000Y199542*
X134740Y199522*
X134480Y199449*
X134256Y199340*
X134049Y199194*
X133859Y199009*
X133703Y198796*
X133593Y198565*
X133593D02*
X133531Y198315D01*
X133516Y198056*
X133546Y197797*
X133623Y197539*
X133730Y197323*
X133896Y197078*
X134122Y196804*
X134180Y196735*
X134220Y196680*
X134220D02*
X134242Y196639D01*
X134252Y196536*
X134209Y196424*
X134112Y196305*
X134169Y196156*
X134169D02*
X135710Y196664D01*
X135651Y196818*
X135229Y196831*
X134861Y196902*
X134546Y197032*
X134292Y197200*
X134107Y197385*
X133992Y197587*
X133955Y197728*
X133954Y197863*
X133988Y197992*
X133988D02*
X134055Y198104D01*
X134145Y198191*
X134259Y198252*
X134401Y198290*
X134401D02*
X134543Y198293D01*
X134685Y198261*
X134856Y198181*
X135092Y198041*
X135392Y197841*
X135392D02*
X135842Y197548D01*
X136199Y197345*
X136199D02*
X136465Y197230D01*
X136465D02*
X136783Y197162D01*
X137093Y197167*
X137093D02*
X137394Y197244D01*
X137694Y197402*
X137694D02*
X137945Y197627D01*
X138146Y197919*
X138146D02*
X138266Y198259D01*
X138266D02*
X138274Y198633D01*
X138167Y199040*
X138062Y199258*
X138062D02*
X137922Y199458D01*
X137747Y199639*
X137681Y199700*
X137633Y199757*
X137604Y199810*
X137588Y199863*
X137582Y199910*
X137587Y199954*
X137587D02*
X137609Y200008D01*
X137609D02*
X137652Y200084D01*
X137717Y200185*
X137659Y200339*
X138485Y203632D02*
X134347Y202445D01*
X135045Y203736*
X135176Y203969*
X135285Y204141*
X135285D02*
X135372Y204249D01*
X135447Y204316*
X135527Y204366*
X135609Y204399*
X135692Y204411*
X135771Y204397*
X135847Y204358*
X135847D02*
X135923Y204282D01*
X136001Y204161*
X136082Y203993*
X136253Y204043*
X136253D02*
X135696Y205985D01*
X135525Y205936*
X135555Y205752*
X135557Y205578*
X135531Y205412*
X135453Y205191*
X135453D02*
X135294Y204850D01*
X135054Y204391*
X135054D02*
X134726Y203784D01*
X132939Y204377*
X132321Y204585*
X131911Y204732*
X131911D02*
X131710Y204818D01*
X131587Y204906*
X131489Y205022*
X131418Y205166*
X131251Y205118*
X131251D02*
X131894Y202878D01*
X132061Y202926*
X132041Y203017*
X132040Y203094*
X132055Y203157*
X132055D02*
X132083Y203205D01*
X132116Y203239*
X132157Y203258*
X132254Y203263*
X132404Y203236*
X132607Y203176*
X134110Y202680*
X134110D02*
X133916Y202322D01*
X133137Y202099*
X132844Y202026*
X132629Y201998*
X132491Y202014*
X132395Y202077*
X132306Y202189*
X132225Y202349*
X132059Y202302*
X132059D02*
X132701Y200062D01*
X132701D02*
X132868Y200109D01*
X132853Y200283*
X132875Y200430*
X132934Y200550*
X133033Y200626*
X133224Y200710*
X133509Y200800*
X137915Y202064*
X138204Y202136*
X138417Y202165*
X138417D02*
X138553Y202149D01*
X138553D02*
X138648Y202087D01*
X138736Y201976*
X138818Y201816*
X138818D02*
X138991Y201865D01*
X138485Y203632*
X132632Y210130D02*
X133188Y207720D01*
X133188D02*
X132630Y207665D01*
X132630D02*
X132133Y207713D01*
X131698Y207865*
X131428Y208046*
X131238Y208276*
X131128Y208556*
X131128D02*
X131103Y208742D01*
X131103D02*
X131116Y208925D01*
X131116D02*
X131167Y209104D01*
X131264Y209292*
X131264D02*
X131415Y209500D01*
X131619Y209729*
X131480Y209863*
X131098Y209517*
X131098D02*
X130815Y209174D01*
X130630Y208836*
X130532Y208495*
X130532D02*
X130508Y208137D01*
X130559Y207765*
X130559D02*
X130780Y207185D01*
X131145Y206749*
X131653Y206457*
X132141Y206333*
X132674Y206315*
X132674D02*
X133250Y206400D01*
X133918Y206624*
X134456Y206958*
X134865Y207400*
X135129Y207903*
X135238Y208418*
X135192Y208945*
X135192D02*
X135034Y209356D01*
X134762Y209700*
X134762D02*
X134378Y209977D01*
X133890Y210156*
X133308Y210207*
X132632Y210130*
X133213Y209047D02*
X133668Y209142D01*
X134020Y209195*
X134020D02*
X134273Y209204D01*
X134460Y209179*
X134622Y209126*
X134759Y209047*
X134822Y208985*
X134871Y208904*
X134871D02*
X134904Y208804D01*
X134912Y208644*
X134912D02*
X134863Y208492D01*
X134755Y208348*
X134755D02*
X134479Y208122D01*
X134118Y207941*
X133674Y207806*
X133509Y207768*
X133213Y209047*
X136974Y210644D02*
X135703Y208711D01*
X135703D02*
X135797Y208306D01*
X137301Y209229*
X136974Y210644*
X135703Y208711*
X135703D02*
X135797Y208306D01*
X137301Y209229*
X136974Y210644*
X135703Y208711*
X135703D02*
X135797Y208306D01*
X137301Y209229*
X136974Y210644*
X132701Y216878D02*
X132500Y217422D01*
X132287Y217841*
X132064Y218135*
X131718Y218406*
X131324Y218553*
X130884Y218574*
X130427Y218468*
X130427D02*
X130040Y218236D01*
X129720Y217877*
X129445Y217292*
X129312Y216571*
X129322Y215717*
X129322D02*
X129611Y212404D01*
X129788Y212419*
X129788D02*
X129775Y212689D01*
X129785Y212896*
X129820Y213040*
X129874Y213142*
X129940Y213224*
X130019Y213284*
X130150Y213333*
X130368Y213374*
X130676Y213408*
X134905Y213778*
X134905D02*
X135215Y213798D01*
X135439Y213796*
X135578Y213770*
X135668Y213724*
X135747Y213654*
X135816Y213562*
X135874Y213426*
X135919Y213225*
X135951Y212958*
X136130Y212974*
X135857Y216098*
X135775Y216770*
X135775D02*
X135662Y217293D01*
X135518Y217667*
X135338Y217943*
X135338D02*
X135118Y218170D01*
X134858Y218350*
X134575Y218476*
X134286Y218541*
X133991Y218545*
X133691Y218481*
X133421Y218343*
X133181Y218131*
X132978Y217826*
X132818Y217409*
X132701Y216878*
X132986Y215141D02*
X132967Y215557D01*
X132988Y215896*
X132988D02*
X133051Y216160D01*
X133150Y216370*
X133280Y216549*
X133440Y216696*
X133440D02*
X133635Y216810D01*
X133867Y216888*
X134137Y216931*
X134409Y216936*
X134650Y216900*
X134861Y216823*
X135041Y216708*
X135195Y216558*
X135195D02*
X135324Y216372D01*
X135425Y216125*
X135425D02*
X135501Y215789D01*
X135501D02*
X135552Y215365D01*
X132986Y215141*
X132611Y215108D02*
X130520Y214925D01*
X130279Y214899*
X130279D02*
X130120Y214900D01*
X129985Y214932*
X129876Y214996*
X129794Y215092*
X129739Y215219*
X129711Y215376*
X129707Y215628*
X129707D02*
X129743Y215869D01*
X129819Y216100*
X129932Y216311*
X130083Y216492*
X130271Y216641*
X130271D02*
X130486Y216758D01*
X130486D02*
X130722Y216836D01*
X130978Y216878*
X130978D02*
X131274Y216880D01*
X131554Y216833*
X131817Y216738*
X132048Y216598*
X132233Y216419*
X132374Y216200*
X132479Y215920*
X132479D02*
X132558Y215556D01*
X132611Y215108*
X133449Y223972D02*
X129918D01*
X129617Y223983*
X129402Y224014*
X129274Y224068*
X129199Y224154*
X129144Y224284*
X129111Y224460*
X128938*
Y222620*
X129541*
X129307Y222405*
X129120Y222190*
X128979Y221975*
X128979D02*
X128882Y221750D01*
X128823Y221509*
X128803Y221250*
X128803D02*
X128829Y221006D01*
X128907Y220780*
X129037Y220574*
X129202Y220397*
X129385Y220264*
X129586Y220174*
X129846Y220118*
X130211Y220084*
X130680Y220073*
X132471*
X132768Y220062*
X132768D02*
X132980Y220031D01*
X133106Y219979*
X133181Y219894*
X133235Y219763*
X133271Y219587*
X133449*
Y221424*
X130366*
X130366D02*
X130083Y221430D01*
X130083D02*
X129875Y221445D01*
X129743Y221471*
X129659Y221507*
X129588Y221555*
X129531Y221616*
X129491Y221685*
X129467Y221761*
X129459Y221845*
X129459D02*
X129469Y221956D01*
X129500Y222061*
X129551Y222158*
X129551D02*
X129663Y222295D01*
X129832Y222449*
X130058Y222620*
X132471*
X132768Y222610*
X132768D02*
X132980Y222579D01*
X133106Y222526*
X133181Y222441*
X133235Y222310*
X133271Y222133*
X133449*
Y223972*
X135794Y229522D02*
X130614Y229884D01*
X130312Y229908*
X130312D02*
X130106Y229933D01*
X129995Y229957*
X129901Y229997*
X129901D02*
X129826Y230051D01*
X129771Y230120*
X129732Y230213*
X129709Y230342*
X129700Y230505*
X129542Y230516*
X129542D02*
X129038Y228641D01*
X129751Y228591*
X129489Y228388*
X129287Y228198*
X129145Y228020*
X129049Y227841*
X128985Y227643*
X128954Y227428*
X129002Y226888*
X129227Y226416*
X129629Y226012*
X130062Y225755*
X130564Y225584*
X131135Y225499*
X131605Y225495*
X131605D02*
X132045Y225548D01*
X132455Y225660*
X132820Y225822*
X133125Y226030*
X133125D02*
X133372Y226283D01*
X133556Y226570*
X133675Y226876*
X133730Y227200*
X133731Y227408*
X133703Y227602*
X133703D02*
X133645Y227782D01*
X133645D02*
X133553Y227959D01*
X133420Y228148*
X133246Y228346*
X134603Y228251*
X134900Y228226*
X135106Y228197*
X135221Y228165*
X135302Y228114*
X135367Y228051*
X135416Y227977*
X135446Y227875*
X135459Y227728*
X135453Y227538*
X135655Y227524*
X135794Y229522*
X132648Y228388D02*
X133010Y228106D01*
X133217Y227800*
X133270Y227469*
X133252Y227358*
X133214Y227262*
X133154Y227182*
X133022Y227080*
X132840Y226995*
X132609Y226928*
X132310Y226886*
X131924Y226875*
X131450Y226895*
X130933Y226945*
X130516Y227016*
X130199Y227108*
X129958Y227219*
X129768Y227347*
X129630Y227492*
X129585Y227578*
X129562Y227681*
X129562D02*
X129561Y227802D01*
X129561D02*
X129654Y228073D01*
X129893Y228324*
X130280Y228554*
X132648Y228388*
X132470Y234985D02*
X132083Y232543D01*
X132083D02*
X131544Y232700D01*
X131101Y232932*
X131101D02*
X130755Y233236D01*
X130755D02*
X130573Y233504D01*
X130483Y233788*
X130486Y234089*
X130533Y234271*
X130613Y234436*
X130727Y234583*
X130888Y234721*
X131106Y234857*
X131380Y234993*
X131380D02*
X131302Y235170D01*
X130818Y234991*
X130427Y234780*
X130427D02*
X130129Y234536D01*
X130129D02*
X129910Y234256D01*
X129754Y233934*
X129661Y233569*
X129650Y232949*
X129824Y232408*
X130186Y231947*
X130593Y231649*
X131079Y231432*
X131645Y231296*
X132349Y231253*
X132973Y231361*
X133517Y231618*
X133951Y231985*
X134245Y232422*
X134400Y232927*
X134407Y233368*
X134284Y233789*
X134031Y234189*
X133646Y234539*
X133125Y234804*
X133125D02*
X132470Y234985D01*
X132603Y233764D02*
X133060Y233682D01*
X133407Y233598*
X133644Y233512*
X133809Y233419*
X133939Y233310*
X134036Y233185*
X134072Y233103*
X134086Y233009*
X134079Y232905*
X134079D02*
X134028Y232754D01*
X134028D02*
X133925Y232631D01*
X133772Y232538*
X133429Y232432*
X133429D02*
X133027Y232400D01*
X132566Y232441*
X132398Y232468*
X132603Y233764*
X134696Y232258D02*
X136364Y231009D01*
X136421Y231370*
X135619Y232664*
X136757Y233681*
X136819Y234071*
X134866Y233335*
X134866D02*
X134696Y232258D01*
X137119Y236452D02*
X137133Y236648D01*
X137096Y236833*
X137009Y237006*
X136881Y237153*
X136725Y237256*
X136725D02*
X136540Y237316D01*
X136540D02*
X136344Y237329D01*
X136158Y237292*
X135983Y237202*
X135835Y237074*
X135731Y236918*
X135670Y236733*
X135657Y236539*
X135695Y236355*
X135785Y236181*
X135913Y236033*
X136072Y235928*
X136259Y235867*
X136452Y235854*
X136452D02*
X136636Y235891D01*
X136636D02*
X136809Y235978D01*
X136955Y236106*
X137059Y236264*
X137119Y236452*
X135107Y237530D02*
X130523Y238422D01*
X130129Y238489*
X129806Y238524*
X129554Y238526*
X129257Y238474*
X128988Y238364*
X128988D02*
X128748Y238194D01*
X128548Y237963*
X128398Y237670*
X128298Y237316*
X128255Y236956*
X128279Y236654*
X128368Y236409*
X128506Y236223*
X128679Y236094*
X128679D02*
X128887Y236022D01*
X129023Y236012*
X129153Y236037*
X129276Y236095*
X129382Y236181*
X129455Y236284*
X129496Y236405*
X129506Y236519*
X129506D02*
X129489Y236620D01*
X129445Y236710*
X129374Y236783*
X129275Y236839*
X129147Y236875*
X129106Y236883*
X129061Y236890*
X129013Y236896*
X128952Y236903*
X128906Y236908*
X128874Y236913*
X128774Y236942*
X128697Y236983*
X128641Y237037*
X128607Y237101*
X128594Y237171*
X128600Y237247*
X128624Y237314*
X128667Y237371*
X128729Y237417*
X128729D02*
X128810Y237445D01*
X128905Y237454*
X128905D02*
X129015Y237441D01*
X129099Y237422*
X129225Y237388*
X129392Y237339*
X129392D02*
X129692Y237253D01*
X129900Y237194*
X130018Y237164*
X131137Y236931*
X133875Y236399*
X133875D02*
X134122Y236356D01*
X134298Y236310*
X134429Y236250*
X134513Y236174*
X134560Y236069*
X134580Y235917*
X134580D02*
X134574Y235718D01*
X134748Y235684*
X135107Y237530*
X136236Y240902D02*
X136303Y241281D01*
X136300Y241660*
X136227Y242038*
X136227D02*
X136085Y242398D01*
X135872Y242721*
X135591Y243005*
X135258Y243246*
X134886Y243437*
X134475Y243577*
X134475D02*
X133877Y243682D01*
X133877D02*
X133318Y243663D01*
X132798Y243521*
X132264Y243207*
X131872Y242752*
X131872D02*
X131622Y242154D01*
X131537Y241528*
X131632Y240961*
X131907Y240455*
X132312Y240030*
X132312D02*
X132797Y239710D01*
X133361Y239495*
X133976Y239395*
X134569Y239430*
X135141Y239600*
X135637Y239904*
X135637D02*
X136002Y240337D01*
X136236Y240902*
X135911Y241010D02*
X135850Y240864D01*
X135754Y240745*
X135754D02*
X135622Y240651D01*
X135437Y240592*
X135181Y240580*
X134854Y240617*
X134854D02*
X134447Y240693D01*
X133952Y240806*
X133369Y240956*
X133046Y241050*
X132742Y241156*
X132742D02*
X132455Y241271D01*
X132264Y241373*
X132264D02*
X132116Y241491D01*
X132116D02*
X132011Y241625D01*
X131946Y241768*
X131922Y241911*
X131940Y242054*
X131940D02*
X131988Y242182D01*
X132059Y242288*
X132150Y242372*
X132299Y242448*
X132468Y242489*
X132468D02*
X132659Y242495D01*
X133067Y242441*
X133672Y242313*
X134473Y242110*
X134943Y241973*
X135298Y241846*
X135537Y241729*
X135698Y241613*
X135818Y241487*
X135818D02*
X135898Y241352D01*
X135929Y241249*
X135933Y241135*
X135911Y241010*
X133277Y247237D02*
X136045Y244613D01*
X136334Y244326*
X136536Y244100*
X136650Y243936*
X136691Y243830*
X136691D02*
X136707Y243708D01*
X136698Y243570*
X136865Y243509*
X137685Y245762*
X137517Y245823*
X137462Y245699*
X137462D02*
X137401Y245611D01*
X137335Y245561*
X137242Y245526*
X137150Y245518*
X137060Y245537*
X136922Y245613*
X136737Y245756*
X136501Y245967*
X135164Y247244*
X136741Y247301*
X137144Y247306*
X137451Y247285*
X137451D02*
X137663Y247239D01*
X137747Y247195*
X137811Y247133*
X137855Y247054*
X137855D02*
X137874Y246950D01*
X137862Y246817*
X137862D02*
X137821Y246657D01*
X137988Y246596*
X138493Y247983*
X138325Y248044*
X138325D02*
X138251Y247930D01*
X138251D02*
X138162Y247839D01*
X138057Y247772*
X137887Y247723*
X137600Y247683*
X137198Y247654*
X133355Y247450*
X133277Y247237*
X141190Y248693D02*
X141245Y248886D01*
X141247Y249078*
X141247D02*
X141196Y249269D01*
X141196D02*
X141099Y249440D01*
X140964Y249575*
X140964D02*
X140793Y249674D01*
X140604Y249728*
X140414Y249729*
X140414D02*
X140224Y249677D01*
X140052Y249580*
X139916Y249446*
X139916D02*
X139818Y249276D01*
X139763Y249087*
X139762Y248897*
X139812Y248707*
X139812D02*
X139908Y248535D01*
X140041Y248400*
X140211Y248302*
X140211D02*
X140401Y248248D01*
X140592Y248245*
X140783Y248295*
X140955Y248390*
X140955D02*
X141091Y248523D01*
X141190Y248693*
X139442Y250169D02*
X136150Y251566D01*
X135898Y251687*
X135725Y251801*
X135634Y251907*
X135601Y252027*
X135601D02*
X135611Y252180D01*
X135662Y252367*
X135503Y252435*
X135503D02*
X134551Y250191D01*
X134710Y250124*
X134803Y250282*
X134803D02*
X134915Y250396D01*
X135044Y250465*
X135044D02*
X135171Y250469D01*
X135364Y250421*
X135623Y250323*
X138048Y249293*
X138301Y249173*
X138301D02*
X138475Y249059D01*
X138568Y248953*
X138599Y248834*
X138590Y248682*
X138540Y248498*
X138703Y248429*
X139442Y250169*
X138615Y256096D02*
X138579Y256280D01*
X138579D02*
X138150Y256242D01*
X137765Y256141*
X137425Y255978*
X137425D02*
X137135Y255763D01*
X136895Y255507*
X136707Y255211*
X136520Y254675*
X136503Y254144*
X136503D02*
X136659Y253617D01*
X136659D02*
X136953Y253129D01*
X136953D02*
X137358Y252721D01*
X137870Y252393*
X137870D02*
X138420Y252173D01*
X138976Y252074*
X139538Y252093*
X139538D02*
X140158Y252278D01*
X140657Y252637*
X141033Y253169*
X141195Y253574*
X141259Y253957*
X141224Y254319*
X141111Y254634*
X140940Y254875*
X140711Y255043*
X140550Y255104*
X140395Y255122*
X140243Y255094*
X140107Y255026*
X139993Y254921*
X139900Y254780*
X139837Y254611*
X139822Y254443*
X139853Y254274*
X139853D02*
X139945Y254107D01*
X140110Y253938*
X140347Y253767*
X140347D02*
X140496Y253659D01*
X140601Y253553*
X140601D02*
X140662Y253449D01*
X140686Y253349*
X140682Y253254*
X140682D02*
X140651Y253162D01*
X140560Y253044*
X140427Y252963*
X140253Y252921*
X139929Y252930*
X139553Y253028*
X139124Y253216*
X138762Y253426*
X138431Y253670*
X138131Y253949*
X137883Y254245*
X137710Y254541*
X137611Y254837*
X137593Y255056*
X137626Y255273*
X137711Y255489*
X137792Y255622*
X137892Y255739*
X137892D02*
X138012Y255839D01*
X138012D02*
X138166Y255929D01*
X138166D02*
X138367Y256015D01*
X138367D02*
X138615Y256096D01*
X142199Y259721D02*
X140962Y257580D01*
X140962D02*
X140516Y257920D01*
X140516D02*
X140186Y258294D01*
X139972Y258702*
X139898Y259018*
X139915Y259316*
X140025Y259596*
X140025D02*
X140135Y259749D01*
X140269Y259874*
X140428Y259970*
X140628Y260041*
X140880Y260091*
X140880D02*
X141185Y260119D01*
X141185D02*
X141175Y260312D01*
X140659Y260319*
X140219Y260261*
X139853Y260140*
X139853D02*
X139548Y259958D01*
X139548D02*
X139287Y259713D01*
X139070Y259406*
X138837Y258831*
X138806Y258263*
X138979Y257704*
X138979D02*
X139251Y257280D01*
X139251D02*
X139627Y256902D01*
X139627D02*
X140107Y256572D01*
X140749Y256281*
X141370Y256158*
X141370D02*
X141970Y256202D01*
X142507Y256390*
X142938Y256692*
X143263Y257108*
X143428Y257517*
X143464Y257954*
X143464D02*
X143372Y258419D01*
X143372D02*
X143137Y258883D01*
X142746Y259317*
X142199Y259721*
X141886Y258533D02*
X142283Y258293D01*
X142577Y258091*
X142767Y257925*
X142888Y257779*
X142971Y257631*
X143016Y257480*
X143020Y257391*
X143020D02*
X143000Y257298D01*
X142956Y257202*
X142854Y257079*
X142714Y257002*
X142537Y256970*
X142181Y256994*
X141793Y257108*
X141377Y257311*
X141229Y257396*
X141229D02*
X141886Y258533D01*
X179046Y183076D02*
X174079Y173262D01*
X173364Y173634*
X173364D02*
X172657Y174017D01*
X171955Y174409*
X171261Y174812*
X170572Y175224*
X169891Y175646*
X169217Y176077*
X168550Y176518*
X167890Y176968*
X167237Y177427*
X166590Y177895*
X166590D02*
X165952Y178372D01*
X165320Y178858*
X164696Y179353*
X164080Y179856*
X163471Y180368*
X162870Y180888*
X162276Y181417*
X162276D02*
X161690Y181953D01*
X161690D02*
X161112Y182498D01*
X161112D02*
X160542Y183050D01*
X160542D02*
X159981Y183610D01*
X159427Y184178*
X158881Y184754*
X158881D02*
X158343Y185336D01*
X157814Y185926*
X157293Y186524*
X156781Y187128*
X156075Y188009*
X155295Y188983D02*
X154818Y189615D01*
X154349Y190254*
X154349D02*
X153888Y190898D01*
X153888D02*
X153438Y191549D01*
X152996Y192206*
X152563Y192869*
X152139Y193538*
X151725Y194213*
X151320Y194894*
X150924Y195580*
X150538Y196272*
X150162Y196969*
X149795Y197671*
X149438Y198379*
X149090Y199091*
X149090D02*
X148753Y199809D01*
X148425Y200531*
X148425D02*
X148108Y201258D01*
X147801Y201989*
X147504Y202725*
X147217Y203465*
X146940Y204210*
X146940D02*
X146674Y204958D01*
X146418Y205711*
X146418D02*
X146174Y206467D01*
X145939Y207227*
X145715Y207991*
X145502Y208758*
X145300Y209529*
X145109Y210303*
X144929Y211080*
X144760Y211861*
X144601Y212644*
X144601D02*
X144455Y213430D01*
X144455D02*
X144320Y214219D01*
X144320D02*
X144196Y215010D01*
X144083Y215804*
X144083D02*
X143982Y216600D01*
X143892Y217398*
X143892D02*
X143815Y218198D01*
X143749Y219001*
X143694Y219806*
X143694D02*
X143652Y220612D01*
X143622Y221420*
X143604Y222230*
X143604D02*
X143598Y223040D01*
X143604Y223859*
X143622Y224677*
X143652Y225493*
X143694Y226307*
X143749Y227119*
X143815Y227929*
X143893Y228737*
X143982Y229542*
X144083Y230345*
X144196Y231146*
X144320Y231943*
X144456Y232738*
X144603Y233530*
X144761Y234319*
X144930Y235105*
X145111Y235888*
X145302Y236667*
X145505Y237443*
X145718Y238215*
X145718D02*
X145943Y238983D01*
X146178Y239748*
X146424Y240509*
X146680Y241266*
X146947Y242019*
X146947D02*
X147224Y242767D01*
X147512Y243511*
X147810Y244250*
X148119Y244985*
X148437Y245716*
X148766Y246441*
X149105Y247162*
X149453Y247877*
X149453D02*
X149812Y248587D01*
X150181Y249293*
X150181D02*
X150559Y249993D01*
X150559D02*
X150947Y250687D01*
X151344Y251375*
X151751Y252058*
X152168Y252735*
X152594Y253406*
X153029Y254071*
X153473Y254730*
X153927Y255383*
X154390Y256030*
X154390D02*
X154861Y256669D01*
X155342Y257302*
X155832Y257929*
X156330Y258548*
X156837Y259161*
X157353Y259767*
X157353D02*
X157878Y260365D01*
X158411Y260956*
X158952Y261540*
X159502Y262116*
X160061Y262685*
X160627Y263246*
X161201Y263798*
X161201D02*
X161784Y264344D01*
X162375Y264881*
X162974Y265409*
X163580Y265930*
X164194Y266442*
X164816Y266946*
X164816D02*
X165446Y267441D01*
X165446D02*
X166084Y267927D01*
X166729Y268404*
X167381Y268872*
X168040Y269332*
X168040D02*
X168708Y269782D01*
X169382Y270223*
X170063Y270654*
X170752Y271076*
X171447Y271488*
X172150Y271890*
X172859Y272283*
X173575Y272666*
X174298Y273038*
X179423Y262698*
X169711Y181456D02*
X168885Y180387D01*
X169003Y180305*
X169351Y180498*
X169654Y180620*
X169912Y180669*
X170134Y180664*
X170326Y180619*
X170491Y180534*
X170573Y180461*
X170631Y180372*
X170666Y180269*
X170666D02*
X170675Y180162D01*
X170657Y180065*
X170612Y179978*
X170561Y179922*
X170496Y179878*
X170417Y179847*
X170217Y179812*
X169896Y179795*
X169896D02*
X169456Y179794D01*
X169003Y179787*
X168642Y179748*
X168642D02*
X168375Y179678D01*
X168375D02*
X168169Y179574D01*
X167990Y179431*
X167837Y179251*
X167727Y179062*
X167648Y178854*
X167601Y178627*
X167592Y178396*
X167625Y178174*
X167625D02*
X167703Y177962D01*
X167819Y177766*
X167968Y177593*
X168150Y177443*
X168333Y177338*
X168574Y177242*
X168873Y177154*
X168873D02*
X168949Y177132D01*
X168949D02*
X169005Y177111D01*
X169041Y177092*
X169099Y177022*
X169122Y176920*
X169111Y176786*
X169225Y176706*
X169225D02*
X170095Y177830D01*
X169977Y177913*
X169977D02*
X169664Y177715D01*
X169664D02*
X169362Y177587D01*
X169069Y177527*
X168802Y177524*
X168577Y177569*
X168577D02*
X168394Y177659D01*
X168298Y177743*
X168231Y177841*
X168231D02*
X168194Y177951D01*
X168187Y178065*
X168210Y178172*
X168262Y178273*
X168262D02*
X168348Y178370D01*
X168449Y178442*
X168568Y178487*
X168731Y178514*
X168972Y178528*
X169288Y178530*
X169758Y178537*
X170118Y178565*
X170118D02*
X170367Y178611D01*
X170632Y178718*
X170855Y178873*
X171036Y179077*
X171176Y179339*
X171248Y179626*
X171251Y179937*
X171172Y180243*
X170993Y180518*
X170717Y180762*
X170534Y180869*
X170334Y180945*
X170118Y180991*
X170118D02*
X170040Y181002D01*
X169977Y181020*
X169930Y181045*
X169930D02*
X169892Y181075D01*
X169892D02*
X169865Y181107D01*
X169848Y181141*
X169837Y181191*
X169837D02*
X169830Y181268D01*
X169829Y181373*
X169711Y181456*
X168327Y184182D02*
X167417Y183058D01*
X167417D02*
X166687Y183648D01*
X166424Y183323*
X167153Y182732*
X167153D02*
X165618Y180836D01*
X165488Y180682*
X165488D02*
X165388Y180574D01*
X165315Y180513*
X165255Y180482*
X165255D02*
X165192Y180463D01*
X165126Y180458*
X165064Y180465*
X165064D02*
X165013Y180480D01*
X165013D02*
X164973Y180504D01*
X164973D02*
X164863Y180653D01*
X164816Y180871*
X164832Y181157*
X164675Y181163*
X164605Y180639*
X164605D02*
X164724Y180196D01*
X165029Y179833*
X165228Y179701*
X165437Y179622*
X165655Y179595*
X165865Y179612*
X166049Y179663*
X166207Y179749*
X166320Y179852*
X166320D02*
X166494Y180044D01*
X166729Y180328*
X166729D02*
X168073Y181987D01*
X168475Y181662*
X168568Y181777*
X168568D02*
X168467Y182188D01*
X168397Y182584*
X168361Y182964*
X168356Y183337*
X168381Y183714*
X168436Y184094*
X168327Y184182*
X164886Y185259D02*
X164274Y184603D01*
X164338Y185040*
X164355Y185395*
X164325Y185668*
X164325D02*
X164259Y185883D01*
X164166Y186062*
X164045Y186205*
X163926Y186294*
X163801Y186345*
X163801D02*
X163668Y186356D01*
X163668D02*
X163536Y186330D01*
X163536D02*
X163408Y186261D01*
X163285Y186152*
X163285D02*
X163176Y186013D01*
X163109Y185875*
X163085Y185737*
X163096Y185606*
X163142Y185492*
X163220Y185395*
X163220D02*
X163335Y185309D01*
X163463Y185256*
X163603Y185235*
X163729Y185230*
X163812Y185225*
X163812D02*
X163854Y185220D01*
X163886Y185210*
X163916Y185194*
X163944Y185172*
X163996Y185110*
X164031Y185034*
X164051Y184945*
X164053Y184793*
X164023Y184633*
X163961Y184467*
X163961D02*
X163824Y184208D01*
X163651Y183957*
X163651D02*
X163443Y183712D01*
X162824Y183048*
X162659Y182876*
X162560Y182776*
X162483Y182708*
X162483D02*
X162428Y182671D01*
X162351Y182647*
X162276Y182640*
X162203Y182651*
X162203D02*
X162122Y182684D01*
X162025Y182745*
X162025D02*
X161912Y182832D01*
X161809Y182721*
X163370Y181265*
X163370D02*
X163474Y181376D01*
X163379Y181499*
X163327Y181613*
X163317Y181718*
X163364Y181843*
X163364D02*
X163487Y182019D01*
X163487D02*
X163685Y182245D01*
X165175Y183844*
X165313Y183987*
X165419Y184084*
X165494Y184137*
X165567Y184167*
X165636Y184182*
X165701Y184180*
X165701D02*
X165774Y184158D01*
X165860Y184113*
X165961Y184043*
X166067Y184157*
X164886Y185259*
X161981Y188329D02*
X161735Y188559D01*
X161455Y188738*
X161141Y188865*
X161141D02*
X160808Y188932D01*
X160808D02*
X160470Y188930D01*
X160470D02*
X160126Y188858D01*
X159790Y188729*
X159473Y188546*
X159174Y188311*
X158811Y187921*
X158557Y187501*
X158414Y187052*
X158414D02*
X158390Y186509D01*
X158538Y186003*
X158857Y185534*
X159277Y185172*
X159739Y184972*
X160243Y184932*
X160749Y185027*
X161215Y185231*
X161642Y185543*
X161642D02*
X162009Y185948D01*
X162267Y186400*
X162415Y186902*
X162415D02*
X162429Y187411D01*
X162284Y187887*
X161981Y188329*
X161746Y188141D02*
X161825Y188027D01*
X161867Y187899*
X161872Y187757*
X161827Y187593*
X161827D02*
X161714Y187399D01*
X161531Y187176*
X161281Y186913*
X160961Y186604*
X160961D02*
X160573Y186246D01*
X160349Y186054*
X160126Y185880*
X159904Y185724*
X159738Y185633*
X159581Y185581*
X159431Y185568*
X159296Y185587*
X159180Y185638*
X159083Y185719*
X159012Y185817*
X159012D02*
X158967Y185919D01*
X158949Y186026*
X158965Y186172*
X159015Y186316*
X159101Y186459*
X159336Y186734*
X159720Y187117*
X160251Y187609*
X160576Y187889*
X160839Y188089*
X161040Y188210*
X161201Y188272*
X161201D02*
X161351Y188301D01*
X161488Y188295*
X161579Y188268*
X161665Y188217*
X161665D02*
X161746Y188141D01*
X160801Y192480D02*
X160679Y192602D01*
X160679D02*
X160536Y192685D01*
X160370Y192726*
X160200*
X160042Y192682*
X160042D02*
X159897Y192594D01*
X159775Y192472*
X159693Y192328*
X159693D02*
X159651Y192161D01*
Y191989*
X159694Y191830*
X159781Y191683*
X159903Y191563*
X160046Y191483*
X160212Y191442*
X160212D02*
X160385D01*
X160545Y191486*
X160693Y191575*
X160813Y191695*
X160894Y191838*
X160936Y192003*
X160935Y192174*
X160890Y192332*
X160890D02*
X160801Y192480D01*
X158930Y191770D02*
X155704Y189249D01*
X155433Y189028*
X155433D02*
X155224Y188834D01*
X155079Y188669*
X155079D02*
X154941Y188443D01*
X154941D02*
X154860Y188201D01*
X154834Y187945*
X154834D02*
X154872Y187679D01*
X154979Y187411*
X154979D02*
X155156Y187141D01*
X155369Y186906*
X155583Y186748*
X155796Y186667*
X155796D02*
X155999Y186651D01*
X156184Y186691*
X156351Y186787*
X156436Y186871*
X156494Y186971*
X156526Y187087*
X156531Y187206*
X156504Y187314*
X156448Y187410*
X156378Y187482*
X156301Y187530*
X156301D02*
X156217Y187552D01*
X156217D02*
X156127Y187547D01*
X156033Y187513*
X155936Y187449*
X155907Y187427*
X155877Y187401*
X155845Y187373*
X155806Y187337*
X155775Y187309*
X155754Y187291*
X155754D02*
X155677Y187241D01*
X155677D02*
X155605Y187214D01*
X155605D02*
X155537Y187208D01*
X155476Y187223*
X155422Y187254*
X155375Y187301*
X155344Y187356*
X155332Y187417*
X155338Y187485*
X155365Y187555*
X155414Y187623*
X155414D02*
X155486Y187688D01*
X155547Y187732*
X155642Y187796*
X155770Y187879*
X156000Y188027*
X156158Y188132*
X156158D02*
X156246Y188193D01*
X156246D02*
X157043Y188799D01*
X158970Y190305*
X159141Y190443*
X159272Y190533*
X159388Y190585*
X159486Y190597*
X159583Y190567*
X159695Y190493*
X159823Y190374*
X159945Y190470*
X158930Y191770*
X157152Y194230D02*
X156729Y193943D01*
X156782Y194221*
X156805Y194472*
X156805D02*
X156799Y194696D01*
X156762Y194901*
X156691Y195095*
X156587Y195278*
X156433Y195465*
X156255Y195602*
X156255D02*
X156053Y195687D01*
X156053D02*
X155842Y195726D01*
X155633Y195721*
X155425Y195671*
X155229Y195585*
X155229D02*
X154961Y195431D01*
X154619Y195209*
X153343Y194349*
X153117Y194207*
X152944Y194124*
X152825Y194099*
X152729Y194124*
X152625Y194193*
X152514Y194305*
X152388Y194220*
X153507Y192561*
X153633Y192646*
X153585Y192778*
X153577Y192902*
X153577D02*
X153607Y193017D01*
X153674Y193107*
X153806Y193224*
X154005Y193367*
X155462Y194350*
X155462D02*
X155701Y194506D01*
X155878Y194610*
X155992Y194662*
X155992D02*
X156075Y194680D01*
X156075D02*
X156154Y194681D01*
X156228Y194665*
X156228D02*
X156296Y194635D01*
X156352Y194593*
X156398Y194538*
X156483Y194309*
X156466Y194025*
X156345Y193685*
X154590Y192500*
X154369Y192363*
X154198Y192281*
X154077Y192254*
X153979Y192274*
X153979D02*
X153881Y192332D01*
X153881D02*
X153781Y192426D01*
X153655Y192341*
X153655D02*
X154774Y190682D01*
X154900Y190767*
X154841Y190908*
X154819Y191036*
X154836Y191152*
X154836D02*
X154899Y191242D01*
X155037Y191365*
X155037D02*
X155251Y191519D01*
X155251D02*
X157103Y192768D01*
X157324Y192907*
X157494Y192987*
X157611Y193012*
X157707Y192986*
X157811Y192917*
X157924Y192806*
X158053Y192893*
X157152Y194230*
X154538Y198515D02*
X151771Y197043D01*
X151549Y196938*
X151376Y196883*
X151253Y196880*
X151253D02*
X151154Y196923D01*
X151055Y197015*
X151055D02*
X150955Y197152D01*
X150955D02*
X150822Y197082D01*
X150822D02*
X151825Y195195D01*
X151825D02*
X151959Y195266D01*
X151902Y195417*
X151887Y195556*
X151911Y195682*
X151978Y195770*
X152116Y195876*
X152116D02*
X152327Y195998D01*
X154366Y197082*
X154366D02*
X154588Y197188D01*
X154761Y197244*
X154885Y197249*
X154983Y197204*
X155081Y197114*
X155179Y196978*
X155316Y197051*
X155316D02*
X154538Y198515D01*
X155968Y200033D02*
X155330Y198108D01*
X155501Y197787*
X156566Y198909*
X155968Y200033*
X155330Y198108*
X155501Y197787*
X156566Y198909*
X155968Y200033*
X155330Y198108*
X155501Y197787*
X156566Y198909*
X155968Y200033*
X148837Y202730D02*
X148682Y202165D01*
X148682D02*
X148648Y201683D01*
X148731Y201286*
X148834Y201098*
X148973Y200952*
X149148Y200848*
X149344Y200793*
X149344D02*
X149543D01*
X149748Y200849*
X150002Y200998*
X150205Y201220*
X150357Y201514*
X150470Y201950*
X150555Y202594*
X150613Y203447*
X150983Y203596*
X151227Y203690*
X151227D02*
X151408Y203745D01*
X151524Y203762*
X151609Y203752*
X151609D02*
X151695Y203720D01*
X151781Y203669*
X151781D02*
X151862Y203599D01*
X151926Y203516*
X151976Y203419*
X151976D02*
X152028Y203253D01*
X152046Y203098*
X152032Y202952*
X152005Y202876*
X151964Y202820*
X151909Y202784*
X151844Y202772*
X151761Y202782*
X151660Y202811*
X151515Y202849*
X151386Y202856*
X151386D02*
X151274Y202830D01*
X151158Y202764*
X151068Y202672*
X151068D02*
X151004Y202554D01*
X150972Y202418*
X150977Y202275*
X151020Y202124*
X151100Y201976*
X151205Y201858*
X151205D02*
X151337Y201771D01*
X151479Y201721*
X151618Y201712*
X151753Y201745*
X151753D02*
X151928Y201845D01*
X151928D02*
X152077Y201992D01*
X152077D02*
X152201Y202186D01*
X152201D02*
X152291Y202419D01*
X152339Y202680*
X152344Y202969*
X152311Y203270*
X152245Y203566*
X152145Y203856*
X151990Y204170*
X151805Y204415*
X151591Y204593*
X151366Y204710*
X151366D02*
X151153Y204776D01*
X151153D02*
X150951Y204793D01*
X150951D02*
X150781Y204759D01*
X150521Y204676*
X150171Y204541*
X150171D02*
X148748Y203966D01*
X148600Y203909*
X148492Y203873*
X148492D02*
X148424Y203858D01*
X148379*
X148339Y203864*
X148304Y203878*
X148276Y203899*
X148254Y203925*
X148237Y203956*
X148237D02*
X148225Y204031D01*
X148245Y204120*
X148298Y204223*
X148156Y204301*
X148033Y204098*
X147948Y203906*
X147898Y203725*
X147885Y203550*
X147905Y203374*
X147960Y203196*
X148055Y203009*
X148170Y202865*
X148305Y202765*
X148461Y202709*
X148638Y202697*
X148638D02*
X148837Y202730D01*
X149123Y202845D02*
X150350Y203341D01*
X150277Y202975*
X150277D02*
X150174Y202660D01*
X150040Y202395*
X149933Y202252*
X149811Y202143*
X149675Y202069*
X149675D02*
X149554Y202036D01*
X149430Y202037*
X149304Y202070*
X149215Y202120*
X149143Y202197*
X149087Y202301*
X149056Y202449*
X149068Y202630*
X149068D02*
X149123Y202845D01*
X147556Y211645D02*
X148117Y209550D01*
X147629Y209485*
X147629D02*
X147192Y209513D01*
X147192D02*
X146806Y209633D01*
X146565Y209782*
X146391Y209978*
X146286Y210220*
X146259Y210382*
X146265Y210543*
X146304Y210701*
X146383Y210869*
X146509Y211056*
X146681Y211263*
X146554Y211377*
X146231Y211061*
X145993Y210752*
X145842Y210450*
X145766Y210148*
X145755Y209835*
X145755D02*
X145811Y209510D01*
X146024Y209009*
X146356Y208638*
X146811Y208398*
X147242Y208304*
X147709*
X148211Y208396*
X148790Y208613*
X149251Y208922*
X149595Y209322*
X149812Y209770*
X149892Y210225*
X149836Y210685*
X149684Y211041*
X149684D02*
X149435Y211334D01*
X149090Y211565*
X149090D02*
X148657Y211707D01*
X148146Y211733*
X147556Y211645*
X148098Y210714D02*
X148493Y210812D01*
X148801Y210869*
X148801D02*
X149022Y210884D01*
X149187Y210868*
X149330Y210827*
X149451Y210762*
X149451D02*
X149510Y210709D01*
X149555Y210639*
X149587Y210553*
X149599Y210413*
X149561Y210279*
X149470Y210149*
X149235Y209943*
X149235D02*
X148924Y209773D01*
X148540Y209642*
X148396Y209603*
X148098Y210714*
X150691Y214800D02*
X145866Y213863D01*
X145622Y213827*
X145441Y213825*
X145323Y213857*
X145240Y213928*
X145240D02*
X145172Y214044D01*
X145118Y214204*
X144969Y214175*
X145377Y212080*
X145377D02*
X145525Y212108D01*
X145525D02*
X145516Y212269D01*
X145541Y212406*
X145601Y212520*
X145601D02*
X145691Y212585D01*
X145855Y212645*
X146092Y212700*
X150111Y213482*
X150111D02*
X150352Y213518D01*
X150531Y213520*
X150650Y213488*
X150732Y213418*
X150800Y213302*
X150853Y213143*
X151007Y213174*
X150691Y214800*
X146465Y218830D02*
X146729Y216677D01*
X146729D02*
X146237Y216680D01*
X145808Y216768*
X145443Y216941*
X145443D02*
X145224Y217122D01*
X145080Y217341*
X145080D02*
X145009Y217595D01*
X145009D02*
X145005Y217759D01*
X145033Y217918*
X145093Y218069*
X145196Y218224*
X145346Y218392*
X145545Y218572*
X145436Y218703*
X145071Y218435*
X144793Y218162*
X144601Y217885*
X144484Y217596*
X144430Y217287*
X144440Y216958*
X144440D02*
X144580Y216432D01*
X144580D02*
X144859Y216018D01*
X145274Y215717*
X145689Y215565*
X145689D02*
X146151Y215499D01*
X146151D02*
X146661Y215521D01*
X147265Y215655*
X147764Y215896*
X147764D02*
X148161Y216245D01*
X148161D02*
X148437Y216659D01*
X148580Y217098*
X148588Y217561*
X148588D02*
X148488Y217934D01*
X148283Y218259*
X147973Y218536*
X147564Y218737*
X147061Y218835*
X146465Y218830*
X146872Y217832D02*
X147277Y217874D01*
X147589Y217887*
X147810Y217871*
X147971Y217833*
X148108Y217772*
X148219Y217690*
X148270Y217630*
X148305Y217555*
X148324Y217465*
X148324D02*
X148317Y217325D01*
X148260Y217197*
X148153Y217082*
X148153D02*
X147890Y216910D01*
X147890D02*
X147559Y216785D01*
X147161Y216708*
X147012Y216690*
X147012D02*
X146872Y217832D01*
X149935Y221263D02*
X146161D01*
X147061Y222181*
X147228Y222347*
X147361Y222465*
X147460Y222535*
X147540Y222574*
X147540D02*
X147619Y222597D01*
X147697Y222605*
X147769Y222595*
X147769D02*
X147833Y222564D01*
X147887Y222512*
X147933Y222430*
X147970Y222309*
X147998Y222148*
X148153*
Y223919*
X147998*
X147978Y223758*
X147937Y223610*
X147876Y223476*
X147757Y223309*
X147540Y223061*
X147540D02*
X147228Y222732D01*
X147228D02*
X146804Y222300D01*
X145442Y223230*
X144971Y223555*
X144661Y223778*
X144512Y223899*
X144429Y224003*
X144429D02*
X144376Y224124D01*
X144350Y224263*
X144198*
Y222220*
X144350*
X144356Y222302*
X144373Y222367*
X144402Y222417*
X144437Y222450*
X144473Y222470*
X144512Y222477*
X144595Y222458*
X144595D02*
X144715Y222398D01*
X144872Y222300*
X146018Y221518*
X145768Y221263*
X145057*
X144794Y221273*
X144605Y221302*
X144605D02*
X144493Y221349D01*
X144427Y221425*
X144427D02*
X144380Y221540D01*
X144350Y221695*
X144198*
Y219652*
X144350*
X144380Y219802*
X144433Y219920*
X144512Y220007*
X144614Y220048*
X144796Y220071*
X145057Y220080*
X145057D02*
X149075D01*
X149075D02*
X149337Y220070D01*
X149523Y220043*
X149523D02*
X149635Y219997D01*
X149699Y219922*
X149747Y219807*
X149777Y219652*
X149777D02*
X149935D01*
Y221263*
X149776Y226408D02*
X148331Y226483D01*
X148381Y227420*
X147962Y227443*
X147962D02*
X147913Y226505D01*
X145477Y226633*
X145276Y226647*
X145130Y226665*
X145037Y226687*
X144977Y226718*
X144925Y226758*
X144882Y226809*
X144851Y226862*
X144833Y226913*
X144829Y226959*
X144885Y227136*
X145034Y227302*
X145274Y227458*
X145274D02*
X145187Y227588D01*
X144722Y227336*
X144433Y226980*
X144318Y226520*
X144318D02*
X144329Y226281D01*
X144329D02*
X144388Y226065D01*
X144494Y225874*
X144632Y225713*
X144781Y225595*
X144781D02*
X144944Y225517D01*
X145093Y225486*
X145351Y225459*
X145719Y225435*
X147851Y225323*
X147851D02*
X147824Y224807D01*
X147973Y224799*
X148246Y225123*
X148525Y225412*
X148811Y225664*
X149109Y225888*
X149429Y226089*
X149769Y226268*
X149776Y226408*
X148619Y229803D02*
X147729Y229912D01*
X147729D02*
X148120Y230118D01*
X148418Y230312*
X148622Y230496*
X148756Y230677*
X148846Y230858*
X148890Y231039*
X148890D02*
X148892Y231187D01*
X148860Y231319*
X148860D02*
X148792Y231433D01*
X148692Y231525*
X148561Y231588*
X148400Y231624*
X148225Y231630*
X148074Y231602*
X147947Y231541*
X147848Y231454*
X147783Y231351*
X147750Y231230*
X147749Y231087*
X147781Y230953*
X147846Y230827*
X147916Y230722*
X147961Y230651*
X147981Y230614*
X147992Y230583*
X147997Y230550*
X147995Y230513*
X147975Y230436*
X147935Y230363*
X147875Y230294*
X147753Y230203*
X147606Y230133*
X147435Y230085*
X147145Y230045*
X147145D02*
X146840Y230036D01*
X146520Y230061*
X145618Y230171*
X145618D02*
X145382Y230205D01*
X145243Y230225*
X145142Y230247*
X145142D02*
X145081Y230270D01*
X145016Y230319*
X145016D02*
X144967Y230375D01*
X144933Y230440*
X144912Y230525*
X144903Y230639*
X144903D02*
X144908Y230782D01*
X144757Y230800*
X144498Y228681*
X144648Y228663*
X144692Y228812*
X144753Y228921*
X144832Y228991*
X144961Y229026*
X145175Y229030*
X145475Y229004*
X145475D02*
X147644Y228737D01*
X147841Y228709*
X147983Y228681*
X148069Y228651*
X148137Y228610*
X148189Y228563*
X148225Y228508*
X148225D02*
X148251Y228438D01*
X148264Y228341*
X148264D02*
X148267Y228218D01*
X148422Y228199*
X148619Y229803*
X149432Y233890D02*
X149479Y234224D01*
X149464Y234556*
X149464D02*
X149389Y234885D01*
X149253Y235196*
X149057Y235472*
X148802Y235713*
X148503Y235914*
X148172Y236069*
X147807Y236180*
X147807D02*
X147280Y236253D01*
X146790Y236220*
X146790D02*
X146340Y236080D01*
X145881Y235788*
X145552Y235376*
X145351Y234845*
X145296Y234295*
X145296D02*
X145396Y233801D01*
X145653Y233365*
X146020Y233005*
X146455Y232740*
X146956Y232569*
X147498Y232501*
X148016Y232550*
X148512Y232716*
X148937Y232996*
X149244Y233388*
X149432Y233890*
X149143Y233974D02*
X149095Y233845D01*
X149014Y233737*
X148901Y233651*
X148740Y233594*
X148740D02*
X148517Y233576D01*
X148229Y233597*
X148229D02*
X147870Y233652D01*
X147870D02*
X147433Y233736D01*
X146918Y233849*
X146632Y233922*
X146362Y234005*
X146107Y234098*
X145938Y234181*
X145804Y234280*
X145707Y234394*
X145646Y234517*
X145621Y234641*
X145632Y234767*
X145671Y234882*
X145671D02*
X145729Y234976D01*
X145806Y235053*
X145935Y235124*
X146082Y235165*
X146082D02*
X146248Y235176D01*
X146609Y235141*
X147142Y235048*
X147850Y234894*
X148266Y234789*
X148266D02*
X148581Y234688D01*
X148794Y234593*
X148794D02*
X148938Y234496D01*
X148938D02*
X149048Y234389D01*
X149122Y234274*
X149151Y234184*
X149151D02*
X149159Y234085D01*
X149143Y233974*
X151900Y237713D02*
X150517Y238136D01*
X150791Y239033*
X150391Y239155*
X150117Y238258*
X147783Y238971*
X147592Y239033*
X147454Y239087*
X147370Y239131*
X147318Y239175*
X147318D02*
X147278Y239226D01*
X147248Y239286*
X147231Y239346*
X147226Y239398*
X147233Y239444*
X147330Y239603*
X147515Y239728*
X147786Y239820*
X147733Y239968*
X147221Y239836*
X146854Y239561*
X146632Y239143*
X146632D02*
X146585Y238908D01*
X146585D02*
X146589Y238684D01*
X146646Y238472*
X146741Y238284*
X146857Y238132*
X146996Y238018*
X147133Y237952*
X147377Y237863*
X147728Y237750*
X149770Y237126*
X149619Y236632*
X149619D02*
X149761Y236588D01*
X150104Y236837*
X150445Y237049*
X150784Y237225*
X151127Y237370*
X151127D02*
X151486Y237487D01*
X151859Y237579*
X151900Y237713*
X150467Y243570D02*
X149725Y241532D01*
X149725D02*
X149289Y241758D01*
X148947Y242031*
X148700Y242351*
X148587Y242612*
X148557Y242872*
X148610Y243130*
X148681Y243279*
X148778Y243408*
X148778D02*
X148900Y243515D01*
X148900D02*
X149062Y243607D01*
X149272Y243688*
X149531Y243758*
X149493Y243924*
X149047Y243851*
X148675Y243735*
X148378Y243574*
X148142Y243370*
X148142D02*
X147954Y243119D01*
X147813Y242821*
X147700Y242289*
X147760Y241794*
X147994Y241337*
X148294Y241013*
X148676Y240745*
X149141Y240533*
X149739Y240379*
X150294Y240367*
X150294D02*
X150805Y240497D01*
X150805D02*
X151240Y240740D01*
X151566Y241067*
X151566D02*
X151784Y241476D01*
X151864Y241854*
X151829Y242237*
X151678Y242624*
X151405Y242989*
X151001Y243304*
X150467Y243570*
X150378Y242496D02*
X150757Y242349D01*
X151042Y242219*
X151231Y242106*
X151231D02*
X151357Y241998D01*
X151451Y241882*
X151451D02*
X151513Y241758D01*
X151531Y241682*
X151528Y241599*
X151505Y241510*
X151435Y241388*
X151326Y241300*
X151178Y241246*
X150866Y241212*
X150866D02*
X150515Y241251D01*
X150124Y241364*
X149985Y241415*
X149985D02*
X150378Y242496D01*
X151239Y247908D02*
X151200Y248068D01*
X150825Y248015*
X150825D02*
X150493Y247909D01*
X150203Y247750*
X150203D02*
X149958Y247549D01*
X149761Y247314*
X149610Y247046*
X149470Y246569*
X149470D02*
X149480Y246103D01*
X149640Y245648*
X149640D02*
X149921Y245235D01*
X150293Y244896*
X150757Y244632*
X151249Y244465*
X151740Y244404*
X151740D02*
X152231Y244446D01*
X152765Y244637*
X153185Y244974*
X153490Y245457*
X153490D02*
X153614Y245819D01*
X153614D02*
X153652Y246157D01*
X153604Y246473*
X153491Y246743*
X153330Y246946*
X153122Y247083*
X152979Y247129*
X152842Y247137*
X152711Y247106*
X152594Y247041*
X152499Y246944*
X152424Y246815*
X152377Y246665*
X152377D02*
X152372Y246517D01*
X152407Y246371*
X152495Y246228*
X152647Y246088*
X152862Y245949*
X152998Y245861*
X153095Y245773*
X153153Y245685*
X153178Y245599*
X153179Y245515*
X153179D02*
X153155Y245433D01*
X153155D02*
X153081Y245326D01*
X152969Y245249*
X152818Y245205*
X152818D02*
X152535Y245197D01*
X152201Y245266*
X151817Y245411*
X151490Y245578*
X151490D02*
X151189Y245776D01*
X150914Y246006*
X150684Y246255*
X150518Y246506*
X150518D02*
X150418Y246760D01*
X150392Y246951*
X150392D02*
X150412Y247143D01*
X150475Y247335*
X150540Y247456*
X150540D02*
X150623Y247562D01*
X150724Y247656*
X150854Y247742*
X151026Y247826*
X151239Y247908*
X156703Y247952D02*
X154722Y249096D01*
X155005Y249177*
X155005D02*
X155244Y249268D01*
X155438Y249371*
X155438D02*
X155599Y249490D01*
X155733Y249629*
X155842Y249788*
X155842D02*
X155940Y250004D01*
X155940D02*
X155985Y250223D01*
X155979Y250445*
X155979D02*
X155927Y250655D01*
X155842Y250839*
X155724Y250997*
X155545Y251156*
X155282Y251341*
X154933Y251554*
X153597Y252325*
X153373Y252466*
X153224Y252585*
X153150Y252681*
X153131Y252780*
X153131D02*
X153147Y252902D01*
X153198Y253049*
X153066Y253125*
X153066D02*
X152063Y251388D01*
X152195Y251312*
X152288Y251408*
X152390Y251472*
X152501Y251502*
X152616Y251485*
X152783Y251418*
X153004Y251300*
X154531Y250419*
X154531D02*
X154777Y250271D01*
X154777D02*
X154949Y250157D01*
X155045Y250076*
X155096Y250012*
X155131Y249942*
X155149Y249869*
X155149D02*
X155151Y249794D01*
X155151D02*
X155138Y249723D01*
X155107Y249656*
X155107D02*
X155040Y249565D01*
X155040D02*
X154952Y249490D01*
X154842Y249429*
X154703Y249381*
X154527Y249349*
X154315Y249331*
X152479Y250391*
X152479D02*
X152269Y250521D01*
X152127Y250627*
X152127D02*
X152054Y250711D01*
X152017Y250815*
X152021Y250941*
X152021D02*
X152064Y251086D01*
X151933Y251161*
X150930Y249425*
X151061Y249349*
X151162Y249465*
X151162D02*
X151268Y249540D01*
X151379Y249576*
X151379D02*
X151487Y249560D01*
X151657Y249490*
X151888Y249366*
X155367Y247357*
X155589Y247218*
X155737Y247101*
X155811Y247006*
X155829Y246909*
X155812Y246785*
X155812D02*
X155761Y246636D01*
X155898Y246557*
X156703Y247952*
X157874Y253075D02*
X157461Y253375D01*
X157740Y253420*
X157984Y253484*
X158192Y253567*
X158372Y253672*
X158530Y253804*
X158667Y253964*
X158790Y254174*
X158857Y254388*
X158869Y254606*
X158833Y254818*
X158756Y255013*
X158639Y255191*
X158491Y255346*
X158254Y255546*
X157929Y255791*
X156684Y256695*
X156474Y256859*
X156336Y256993*
X156272Y257096*
X156263Y257196*
X156292Y257317*
X156359Y257460*
X156237Y257549*
X155061Y255930*
X155183Y255841*
X155290Y255930*
X155290D02*
X155404Y255981D01*
X155523Y255992*
X155630Y255960*
X155785Y255876*
X155988Y255737*
X157411Y254704*
X157638Y254533*
X157638D02*
X157797Y254403D01*
X157885Y254313*
X157930Y254241*
X157957Y254168*
X157967Y254093*
X157967D02*
X157962Y254019D01*
X157962D02*
X157942Y253951D01*
X157942D02*
X157907Y253889D01*
X157721Y253731*
X157448Y253650*
X157087Y253647*
X155374Y254892*
X155169Y255052*
X155033Y255185*
X154967Y255289*
X154952Y255388*
X154972Y255500*
X155027Y255626*
X154904Y255715*
X154904D02*
X153728Y254096D01*
X153851Y254007*
X153963Y254111*
X154076Y254175*
X154190Y254199*
X154190D02*
X154297Y254171D01*
X154459Y254083*
X154678Y253935*
X156485Y252621*
X156690Y252461*
X156690D02*
X156824Y252330D01*
X156824D02*
X156887Y252227D01*
X156896Y252128*
X156867Y252007*
X156801Y251863*
X156927Y251772*
X156927D02*
X157874Y253075D01*
X162142Y255376D02*
X162237Y255524D01*
X162288Y255684*
X162288D02*
X162294Y255858D01*
X162294D02*
X162257Y256026D01*
X162179Y256174*
X162061Y256300*
X161916Y256394*
X161757Y256444*
X161585Y256449*
X161416Y256412*
X161268Y256335*
X161141Y256217*
X161047Y256072*
X160997Y255913*
X160991Y255742*
X161027Y255573*
X161103Y255426*
X161103D02*
X161222Y255299D01*
X161366Y255205*
X161366D02*
X161525Y255155D01*
X161525D02*
X161698Y255148D01*
X161868Y255183*
X162015Y255259*
X162142Y255376*
X161054Y257061D02*
X158654Y259076D01*
X158473Y259243*
X158357Y259382*
X158307Y259495*
X158311Y259604*
X158311D02*
X158359Y259730D01*
X158450Y259874*
X158334Y259970*
X156960Y258334*
X157076Y258237*
X157195Y258345*
X157318Y258412*
X157444Y258437*
X157551Y258408*
X157701Y258319*
X157701D02*
X157892Y258169D01*
X157892D02*
X159662Y256685D01*
X159843Y256519*
X159959Y256380*
X159959D02*
X160011Y256267D01*
X160011D02*
X160006Y256159D01*
X159959Y256034*
X159870Y255893*
X159870D02*
X159989Y255792D01*
X161054Y257061*
X162017Y262385D02*
X162034Y262549D01*
X161664Y262626*
X161316Y262641*
X161316D02*
X160989Y262591D01*
X160690Y262485*
X160424Y262332*
X160190Y262132*
X160190D02*
X159896Y261731D01*
X159746Y261290*
X159741Y260808*
X159741D02*
X159863Y260324D01*
X160098Y259878*
X160443Y259471*
X160848Y259146*
X161288Y258920*
X161288D02*
X161765Y258793D01*
X162332Y258789*
X162841Y258962*
X163293Y259311*
X163533Y259609*
X163685Y259915*
X163685D02*
X163748Y260227D01*
X163734Y260520*
X163653Y260766*
X163504Y260966*
X163385Y261058*
X163259Y261112*
X163125Y261128*
X162993Y261106*
X162870Y261048*
X162756Y260952*
X162661Y260827*
X162605Y260690*
X162588Y260541*
X162622Y260377*
X162716Y260193*
X162716D02*
X162872Y259988D01*
X162969Y259860*
X163030Y259744*
X163054Y259642*
X163049Y259551*
X163021Y259472*
X162972Y259404*
X162864Y259328*
X162864D02*
X162733Y259295D01*
X162733D02*
X162576Y259304D01*
X162307Y259394*
X162016Y259573*
X162016D02*
X161705Y259840D01*
X161455Y260109*
X161240Y260399*
X161240D02*
X161061Y260709D01*
X160929Y261021*
X160859Y261314*
X160852Y261587*
X160893Y261775*
X160977Y261949*
X161103Y262108*
X161205Y262198*
X161319Y262270*
X161446Y262324*
X161598Y262360*
X161788Y262380*
X162017Y262385*
X167098Y260582D02*
X164672Y263474D01*
X165955Y263374*
X166188Y263353*
X166188D02*
X166364Y263327D01*
X166482Y263296*
X166563Y263259*
X166631Y263213*
X166687Y263159*
X166726Y263097*
X166743Y263029*
X166738Y262954*
X166738D02*
X166705Y262866D01*
X166705D02*
X166636Y262760D01*
X166531Y262636*
X166631Y262517*
X166631D02*
X167988Y263655D01*
X167888Y263774*
X167751Y263685*
X167751D02*
X167612Y263621D01*
X167612D02*
X167470Y263582D01*
X167265Y263566*
X166936Y263572*
X166483Y263600*
X165880Y263646*
X165717Y265289*
X165663Y265859*
X165635Y266239*
X165632Y266431*
X165659Y266561*
X165717Y266680*
X165807Y266789*
X165709Y266905*
X164144Y265592*
X164242Y265476*
X164308Y265524*
X164369Y265552*
X164425Y265562*
X164425D02*
X164474Y265558D01*
X164474D02*
X164512Y265543D01*
X164512D02*
X164542Y265517D01*
X164542D02*
X164581Y265441D01*
X164612Y265311*
X164612D02*
X164637Y265128D01*
X164637D02*
X164775Y263746D01*
X164420Y263774*
X163963Y264319*
X163963D02*
X163801Y264527D01*
X163701Y264690*
X163701D02*
X163666Y264806D01*
X163666D02*
X163681Y264905D01*
X163740Y265016*
X163839Y265138*
X163742Y265254*
X162177Y263941*
X162274Y263824*
X162408Y263899*
X162533Y263933*
X162650Y263930*
X162650D02*
X162747Y263877D01*
X162882Y263753*
X163056Y263558*
X163056D02*
X165639Y260480D01*
X165800Y260274*
X165899Y260113*
X165935Y259999*
X165919Y259901*
X165862Y259791*
X165862D02*
X165762Y259668D01*
X165762D02*
X165864Y259547D01*
X167098Y260582*
X168546Y268214D02*
X167961Y268227D01*
X167485Y268145*
X167485D02*
X167120Y267967D01*
X167120D02*
X166962Y267821D01*
X166854Y267652*
X166854D02*
X166796Y267456D01*
X166789Y267254*
X166789D02*
X166838Y267059D01*
X166942Y266875*
X167148Y266665*
X167148D02*
X167412Y266521D01*
X167735Y266445*
X167735D02*
X168185Y266441D01*
X168830Y266514*
X169672Y266664*
X169906Y266342*
X170056Y266127*
X170153Y265965*
X170153D02*
X170198Y265856D01*
X170209Y265771*
X170199Y265680*
X170170Y265583*
X170122Y265489*
X170057Y265406*
X169974Y265335*
X169827Y265244*
X169680Y265189*
X169536Y265167*
X169455Y265175*
X169390Y265201*
X169390D02*
X169342Y265246D01*
X169316Y265306*
X169304Y265389*
X169309Y265495*
X169309D02*
X169310Y265644D01*
X169285Y265770*
X169233Y265874*
X169142Y265970*
X169031Y266035*
X168900Y266069*
X168760Y266067*
X168623Y266028*
X168623D02*
X168487Y265949D01*
X168362Y265836*
X168274Y265705*
X168222Y265556*
X168207Y265406*
X168231Y265269*
X168296Y265146*
X168435Y265000*
X168614Y264891*
X168614D02*
X168833Y264818D01*
X169081Y264787*
X169346Y264804*
X169628Y264868*
X169911Y264974*
X170182Y265109*
X170440Y265276*
X170706Y265503*
X170900Y265742*
X171020Y265993*
X171020D02*
X171079Y266239D01*
X171079D02*
X171092Y266461D01*
X171092D02*
X171059Y266661D01*
X170986Y266819*
X170986D02*
X170842Y267050D01*
X170626Y267357*
X169724Y268599*
X169633Y268728*
X169572Y268825*
X169542Y268887*
X169530Y268931*
X169527Y268972*
X169532Y269009*
X169545Y269041*
X169545D02*
X169564Y269069D01*
X169564D02*
X169591Y269093D01*
X169591D02*
X169661Y269122D01*
X169752Y269124*
X169865Y269099*
X169907Y269254*
X169680Y269324*
X169473Y269361*
X169286Y269365*
X169112Y269336*
X169112D02*
X168946Y269274D01*
X168787Y269177*
X168628Y269040*
X168517Y268894*
X168453Y268738*
X168436Y268573*
X168467Y268398*
X168546Y268214*
X168728Y267964D02*
X169506Y266893D01*
X169133Y266876*
X168802Y266900*
X168512Y266966*
X168512D02*
X168348Y267035D01*
X168213Y267126*
X168107Y267240*
X168047Y267350*
X168017Y267470*
X168019Y267601*
X168046Y267699*
X168104Y267788*
X168192Y267867*
X168327Y267933*
X168327D02*
X168506Y267965D01*
X168728Y267964*
X172475Y264461D02*
X170481Y264824D01*
X170186Y264611*
X171446Y263712*
X172475Y264461*
X172475D02*
X170481Y264824D01*
X170186Y264611*
X171446Y263712*
X172475Y264461*
X172475D02*
X170481Y264824D01*
X170186Y264611*
X171446Y263712*
X172475Y264461*
X251412Y212557D02*
X249050Y213209D01*
X248997Y212992*
X249516Y212703*
X249934Y212334*
X250249Y211884*
X250450Y211400*
X250524Y210925*
X250472Y210458*
X250357Y210133*
X250190Y209874*
X250190D02*
X249973Y209681D01*
X249729Y209556*
X249482Y209506*
X249234Y209531*
X249085Y209582*
X249085D02*
X248954Y209654D01*
X248842Y209748*
X248707Y209910*
X248585Y210113*
X248475Y210357*
X248388Y210631*
X248278Y211063*
X248144Y211652*
X247926Y212497*
X247679Y213156*
X247401Y213630*
X247079Y213966*
X247079D02*
X246698Y214214D01*
X246258Y214374*
X245670Y214439*
X245099Y214334*
X244546Y214062*
X244062Y213644*
X243700Y213108*
X243700D02*
X243460Y212452D01*
X243413Y212230*
X243383Y212011*
X243369Y211798*
X243375Y211567*
X243375D02*
X243399Y211294D01*
X243441Y210981*
X243459Y210808*
Y210662*
X243441Y210541*
X243406Y210450*
X243348Y210363*
X243265Y210278*
X243265D02*
X243159Y210203D01*
X243031Y210147*
X242882Y210110*
X242834Y209917*
X242834D02*
X245526Y209245D01*
X245574Y209439*
X244928Y209815*
X244928D02*
X244425Y210256D01*
X244425D02*
X244065Y210763D01*
X243845Y211297*
X243764Y211820*
X243822Y212333*
X243949Y212691*
X244134Y212977*
X244377Y213193*
X244377D02*
X244651Y213331D01*
X244929Y213385*
X245211Y213356*
X245374Y213300*
X245526Y213214*
X245667Y213099*
X245796Y212956*
X245912Y212783*
X246015Y212580*
X246114Y212312*
X246218Y211944*
X246328Y211474*
X246485Y210811*
X246640Y210277*
X246794Y209873*
X246962Y209552*
X246962D02*
X247159Y209271D01*
X247383Y209030*
X247637Y208832*
X247637D02*
X247924Y208678D01*
X248242Y208572*
X248799Y208507*
X249335Y208596*
X249850Y208837*
X250295Y209208*
X250625Y209684*
X250625D02*
X250841Y210265D01*
X250889Y210496*
X250918Y210728*
X250918D02*
X250926Y210959D01*
X250916Y211150*
X250887Y211369*
X250841Y211619*
X250841D02*
X250800Y211856D01*
X250784Y212036*
X250794Y212158*
X250825Y212241*
X250871Y212306*
X250932Y212353*
X251027Y212385*
X251027D02*
X251174Y212400D01*
X251373Y212399*
X251412Y212557*
X248175Y222422D02*
X246138Y222493D01*
X245790Y222513*
X245541Y222546*
X245392Y222593*
X245297Y222658*
X245297D02*
X245218Y222746D01*
X245153Y222861*
X245107Y223022*
X245085Y223251*
Y223549*
X244885Y223556*
X244754Y219824*
X244954Y219817*
X244975Y220120*
X244975D02*
X245015Y220349D01*
X245074Y220505*
X245147Y220611*
X245232Y220693*
X245329Y220751*
X245481Y220786*
X245731Y220802*
X245731D02*
X246079Y220798D01*
X250846Y220631*
X251194Y220611*
X251443Y220578*
X251593Y220532*
X251688Y220468*
X251766Y220379*
X251766D02*
X251830Y220265D01*
X251877Y220106*
X251877D02*
X251899Y219875D01*
Y219574*
X252100Y219567*
X252212Y222769*
X252183Y223726*
X252021Y224489*
X251727Y225057*
X251727D02*
X251334Y225454D01*
X251334D02*
X250872Y225699D01*
X250342Y225794*
X250342D02*
X249887Y225761D01*
X249474Y225627*
X249103Y225393*
X248789Y225070*
X248544Y224670*
X248367Y224193*
X248280Y223765*
X248216Y223174*
X248175Y222422*
X251772Y222296D02*
X248597Y222407D01*
X248595Y222517*
X248594Y222608*
X248594D02*
X248596Y222680D01*
X248596D02*
X248653Y223084D01*
X248653D02*
X248797Y223418D01*
X249025Y223682*
X249341Y223870*
X249751Y223976*
X250254Y223998*
X250749Y223941*
X251143Y223807*
X251437Y223598*
X251638Y223313*
X251638D02*
X251752Y222954D01*
X251752D02*
X251779Y222518D01*
X251772Y222296*
X250333Y237362D02*
X247942Y236829D01*
X247996Y236611*
X248590Y236600*
X248590D02*
X249132Y236470D01*
X249622Y236222*
X250026Y235889*
X250314Y235504*
X250314D02*
X250487Y235067D01*
X250539Y234726*
X250514Y234419*
X250412Y234146*
X250255Y233922*
X250061Y233762*
X249830Y233668*
X249675Y233642*
X249675D02*
X249526Y233645D01*
X249526D02*
X249382Y233674D01*
X249187Y233755*
X248984Y233877*
X248772Y234041*
X248567Y234241*
X248267Y234570*
X247872Y235029*
X247283Y235672*
X246755Y236138*
X246288Y236426*
X245846Y236571*
X245393Y236611*
X244929Y236546*
X244380Y236327*
X243925Y235967*
X243564Y235467*
X243333Y234871*
X243265Y234227*
X243361Y233536*
X243424Y233317*
X243500Y233111*
X243588Y232916*
X243702Y232714*
X243850Y232485*
X244034Y232228*
X244132Y232084*
X244201Y231954*
X244242Y231839*
X244253Y231743*
X244253D02*
X244243Y231638D01*
X244210Y231524*
X244151Y231408*
X244064Y231299*
X243950Y231196*
X243998Y231003*
X246691Y231674*
X246642Y231868*
X246642D02*
X245895Y231896D01*
X245244Y232049*
X244688Y232329*
X244243Y232697*
X243926Y233121*
X243735Y233601*
X243680Y233976*
X243709Y234316*
X243823Y234620*
X244000Y234870*
X244220Y235049*
X244482Y235156*
X244653Y235183*
X244827Y235179*
X244827D02*
X245006Y235144D01*
X245186Y235077*
X245370Y234979*
X245556Y234848*
X245770Y234658*
X245770D02*
X246035Y234382D01*
X246035D02*
X246352Y234019D01*
X246352D02*
X246802Y233507D01*
X247190Y233108*
X247516Y232824*
X247815Y232619*
X248120Y232463*
X248431Y232356*
X248749Y232300*
X249074Y232299*
X249404Y232355*
X249926Y232559*
X250359Y232889*
X250700Y233343*
X250919Y233880*
X250987Y234456*
X250987D02*
X250904Y235070D01*
X250838Y235297*
X250838D02*
X250755Y235514D01*
X250654Y235723*
X250555Y235886*
X250555D02*
X250427Y236067D01*
X250427D02*
X250269Y236265D01*
X250122Y236455*
X250023Y236607*
X249974Y236720*
X249963Y236807*
X249973Y236886*
X250005Y236956*
X250074Y237029*
X250197Y237111*
X250373Y237204*
X250333Y237362*
X251307Y234717D02*
X253580Y234156D01*
X253481Y234555*
X252084Y235541*
X252814Y237093*
X252814D02*
X252707Y237524D01*
X251011Y235905*
X251307Y234717*
X217064Y254286D02*
X216813Y253188D01*
X216500Y252092*
X216124Y251026*
X219478Y248769*
X220324Y249521*
X221202Y250243*
X221202D02*
X222142Y250900D01*
X223081Y251496*
X224116Y251967*
X224116D02*
X225181Y252374D01*
X226310Y252624*
X227501Y252750*
X228189Y252103*
X228871Y251422*
X229538Y250712*
X229444Y249490*
X229194Y248362*
X228786Y247296*
X228316Y246262*
X232257Y240427D02*
X232614Y240451D01*
X232972Y240474*
X232972D02*
X233331Y240495D01*
X233331D02*
X234459Y240432D01*
X235618Y240244*
X235618D02*
X236779Y239931D01*
X237153Y239043*
X237153D02*
X237521Y238134D01*
X237875Y237204*
X237311Y236138*
X236161Y234708*
X231235Y230811D02*
X231920Y227332D01*
X231920D02*
X233080Y227269D01*
X234209Y227175*
X235337Y226987*
X236402Y226705*
X237468Y226329*
X238502Y225858*
X239505Y225232*
X239505D02*
X240414Y224511D01*
X240414D02*
X240436Y224030D01*
X240444Y223529*
X240446Y223006*
X240444Y222537*
X240436Y222067*
X240436D02*
X240414Y221596D01*
X240414D02*
X239505Y220813D01*
X238502Y220186*
X237468Y219715*
X236402Y219339*
X235337Y219058*
X235337D02*
X234209Y218869D01*
X233080Y218775*
X231920Y218713*
X231137Y214732*
X232171Y214231*
X233174Y213698*
X234146Y213102*
X235023Y212444*
X235869Y211693*
X235869D02*
X236653Y210846D01*
X236653D02*
X237311Y209906D01*
X237907Y208871*
X237551Y207964*
X237551D02*
X237175Y207063D01*
X236779Y206176*
X235618Y205800*
X235618D02*
X234459Y205612D01*
X233331Y205549*
X232203Y205612*
X231105Y205800*
X231105D02*
X230009Y206050D01*
X228911Y206364*
X227814Y206740*
X227814D02*
X225590Y203387D01*
X226342Y202540*
X227062Y201663*
X227721Y200722*
X228316Y199782*
X228786Y198748*
X229194Y197682*
X229444Y196554*
X229570Y195363*
X228916Y194673*
X228228Y193984*
X227532Y193295*
X227532D02*
X226310Y193420D01*
X225181Y193670*
X224116Y194078*
X224116D02*
X223081Y194548D01*
X222142Y195144*
X221202Y195802*
X221202D02*
X220324Y196523D01*
X219478Y197274*
X217769Y196125*
X217769*
X216500Y193953D02*
X216813Y192856D01*
X216813D02*
X217064Y191759D01*
X217064D02*
X217253Y190631D01*
X217315Y189533*
X217253Y188374*
X217064Y187245*
X217064D02*
X216751Y186086D01*
X215862Y185711*
X215862D02*
X214954Y185343D01*
X214024Y184989*
X212959Y185521*
X212018Y186211*
X210822Y187343*
X203761Y187357D02*
X203524Y186462D01*
X203148Y185396*
X202678Y184362*
X202052Y183359*
X201330Y182450*
X200829Y182428*
X200327Y182420*
X200327D02*
X199826Y182419D01*
X199826D02*
X199325Y182420D01*
X198824Y182428*
X198322Y182450*
X197632Y183359*
X197005Y184362*
X197005D02*
X196383Y185447D01*
X182620Y187245D02*
X182431Y188374D01*
X182369Y189533*
X182431Y190631*
X182620Y191759*
X182870Y192856*
X182870D02*
X183184Y193953D01*
X183560Y195018*
X180207Y197274*
X179360Y196523*
X178451Y195802*
X178451D02*
X177542Y195144D01*
X176571Y194548*
X175568Y194078*
X174503Y193670*
X173374Y193420*
X172183Y193263*
X171450Y193976*
X170753Y194682*
X170753D02*
X170083Y195395D01*
X170083D02*
X170240Y196554D01*
X170491Y197682*
X170898Y198748*
X171237Y199607*
X165960Y205549D02*
X165194Y205612D01*
X164066Y205800*
X162906Y206113*
X162509Y207045*
X162509D02*
X162133Y207961D01*
X161778Y208871*
X162342Y209906*
X163031Y210846*
X163815Y211693*
X163815D02*
X164630Y212444D01*
X165538Y213102*
X165538D02*
X166510Y213698D01*
X167513Y214231*
X168548Y214732*
X167764Y218713*
X166604Y218775*
X165475Y218869*
X165475D02*
X164348Y219058D01*
X164348D02*
X163250Y219339D01*
X162216Y219715*
X161182Y220186*
X160179Y220813*
X160179D02*
X159270Y221533D01*
X159248Y222048*
X159240Y222534*
X159238Y223006*
X159238D02*
X159240Y223530D01*
X159248Y224039*
X159270Y224543*
X159270D02*
X160179Y225232D01*
X160179D02*
X161182Y225858D01*
X162216Y226329*
X163250Y226705*
X164348Y226987*
X165475Y227175*
X165475D02*
X166604Y227269D01*
X167764Y227332*
X167764D02*
X168548Y231311D01*
X167513Y231813*
X166510Y232346*
X165538Y232942*
X165538D02*
X164630Y233600D01*
X163815Y234352*
X163031Y235198*
X162342Y236138*
X161778Y237173*
X162155Y238126*
X162539Y239051*
X162937Y239962*
X164066Y240244*
X165194Y240432*
X166353Y240495*
X166353D02*
X167450Y240432D01*
X168579Y240244*
X169675Y239994*
X169675D02*
X170773Y239680D01*
X171838Y239304*
X174094Y242657*
X173311Y243504*
X172622Y244381*
X171963Y245321*
X171368Y246262*
X170898Y247296*
X170491Y248362*
X170240Y249490*
X170083Y250681*
X170796Y251414*
X171501Y252111*
X171501D02*
X172214Y252781D01*
X173374Y252624*
X174503Y252374*
X175568Y251967*
X175568D02*
X176571Y251496D01*
X177542Y250900*
X178451Y250243*
X178451D02*
X179360Y249521D01*
X180207Y248769*
X182296Y250174*
X183051Y252558D02*
X182870Y253188D01*
X182620Y254286*
X182431Y255414*
X182369Y256511*
X182431Y257639*
X182620Y258799*
X182933Y259958*
X183864Y260356*
X183864D02*
X184781Y260732D01*
X184781D02*
X185692Y261087D01*
X186516Y260764*
X196104Y259193D02*
X196535Y260648D01*
X197005Y261682*
X197005D02*
X197632Y262685D01*
X198353Y263594*
X198353D02*
X198867Y263617D01*
X198867D02*
X199354Y263624D01*
X199826Y263626*
X200318Y263624*
X200318D02*
X200797Y263617D01*
X200797D02*
X201268Y263594D01*
X202052Y262685*
X202678Y261682*
X202880Y261023*
X188567Y197865D02*
X187284Y198505D01*
X186625Y198856*
X185976Y199225*
X185338Y199611*
X185338D02*
X184712Y200014D01*
X184712D02*
X184098Y200432D01*
X183495Y200867*
X182905Y201318*
X182327Y201783*
X182327D02*
X181762Y202265D01*
X181762D02*
X181211Y202760D01*
X180673Y203270*
X180149Y203795*
X180149D02*
X179638Y204333D01*
X179638D02*
X179143Y204884D01*
X178268Y205974*
X175049Y211076D02*
X174732Y211756D01*
X174732D02*
X174434Y212445D01*
X174155Y213145*
X174155D02*
X173894Y213853D01*
X173652Y214570*
X173429Y215296*
X173429D02*
X173227Y216030D01*
X173044Y216772*
X172882Y217521*
X172740Y218278*
X172619Y219043*
X172619D02*
X172520Y219813D01*
X172442Y220590*
X172386Y221373*
X172352Y222162*
X172341Y222956*
X172352Y223750*
X172386Y224539*
X172442Y225322*
X172520Y226100*
X172619Y226870*
X172740Y227634*
X172882Y228391*
X173044Y229141*
X173227Y229883*
X173429Y230617*
X173429D02*
X173652Y231343D01*
X173652D02*
X173894Y232060D01*
X174155Y232768*
X174434Y233467*
X174732Y234157*
X175049Y234837*
X175383Y235507*
X175735Y236166*
X176103Y236815*
X176103D02*
X176490Y237452D01*
X176892Y238078*
X177311Y238693*
X177746Y239295*
X178196Y239886*
X178662Y240463*
X179143Y241028*
X179638Y241580*
X179638D02*
X180149Y242118D01*
X180673Y242642*
X181211Y243152*
X213044Y247056D02*
X213693Y246687D01*
X214330Y246301*
X214957Y245899*
X215571Y245480*
X216174Y245045*
X216764Y244595*
X217342Y244129*
X217907Y243648*
X218458Y243152*
X218996Y242642*
X219520Y242118*
X220031Y241580*
X220855Y240647*
X226787Y228391D02*
X226929Y227634D01*
X227050Y226870*
X227149Y226100*
X227227Y225322*
X227283Y224539*
X227317Y223750*
X227329Y222956*
X227317Y222162*
X227283Y221373*
X227227Y220590*
X227149Y219813*
X227050Y219043*
X227050D02*
X226929Y218278D01*
X226787Y217521*
X226625Y216772*
X226442Y216030*
X226442D02*
X226240Y215296D01*
X226017Y214570*
X225775Y213853*
X225775D02*
X225514Y213145D01*
X225514D02*
X225235Y212445D01*
X224937Y211756*
X224937D02*
X224620Y211076D01*
X224286Y210406*
X223935Y209746*
X223566Y209098*
X223180Y208461*
X222777Y207834*
X222359Y207220*
X221924Y206617*
X221473Y206027*
X221007Y205449*
X220526Y204884*
X220031Y204333*
X219520Y203795*
X188677Y212570D02*
X188755Y212188D01*
X188755D02*
X188929Y211252D01*
X189087Y210286*
X189229Y209287*
X189354Y208255*
X189461Y207186*
X189550Y206081*
X189477Y205325*
X189414Y204587*
X189357Y203866*
X189304Y203158*
X189251Y202463*
X189194Y201779*
X189132Y201103*
X189061Y200434*
X188977Y199771*
X188977D02*
X188879Y199111D01*
X188761Y198453*
X188623Y197794*
X188459Y197133*
X188268Y196469*
X188268D02*
X188046Y195799D01*
X187790Y195122*
X187790D02*
X187498Y194435D01*
X187165Y193737*
X186788Y193027*
X186788D02*
X186366Y192302D01*
X185894Y191561*
X185369Y190801*
X184789Y190021*
X184150Y189220*
X183450Y188395*
X183450D02*
X182684Y187544D01*
X181850Y186666*
X180945Y185759*
X180642Y185576*
X180642D02*
X180497Y185362D01*
Y185122*
X180631Y184863*
X180891Y184592*
X181263Y184316*
X181738Y184041*
X181738D02*
X182304Y183773D01*
X182951Y183520*
X183668Y183288*
X183668D02*
X184444Y183083D01*
X185268Y182912*
X185268D02*
X186130Y182782D01*
X187018Y182699*
X187922Y182670*
X188830Y182701*
X189733Y182800*
X190618Y182971*
X190618D02*
X191476Y183224D01*
X192295Y183562*
X193628Y184185*
X194859Y184747*
X195996Y185250*
X197048Y185695*
X198022Y186083*
X198925Y186416*
X199767Y186695*
X200555Y186922*
X200555D02*
X201297Y187098D01*
X202001Y187224*
X202675Y187303*
X203327Y187335*
X203964Y187322*
X204595Y187265*
X204595D02*
X205228Y187165D01*
X205870Y187025*
X206530Y186845*
X207216Y186627*
X207935Y186372*
X208695Y186083*
X209505Y185759*
X210169Y186474*
X210807Y187156*
X210807D02*
X211418Y187808D01*
X211418D02*
X212005Y188434D01*
X212566Y189039*
X213103Y189624*
X213103D02*
X213616Y190195D01*
X213616D02*
X214106Y190755D01*
X214573Y191307*
X215017Y191855*
X215440Y192403*
X215840Y192954*
X215840D02*
X216220Y193511D01*
X216580Y194079*
X216919Y194661*
X217239Y195261*
X217540Y195882*
X217822Y196529*
X218086Y197203*
X218333Y197910*
X218562Y198653*
X218775Y199435*
X218972Y200260*
X219153Y201132*
X219319Y202054*
X219471Y203030*
X219608Y204063*
X219731Y205158*
X219842Y206317*
X219940Y207545*
X219855Y208692*
X219745Y209792*
X219612Y210847*
X219612D02*
X219458Y211860D01*
X219283Y212832*
X219089Y213766*
X218877Y214663*
X218648Y215526*
X218405Y216356*
X218405D02*
X218148Y217155D01*
X217877Y217926*
X217877D02*
X217597Y218671D01*
X217306Y219391*
X217007Y220089*
X216700Y220766*
X216135Y221910*
X211320Y232454D02*
X211153Y233148D01*
X211153D02*
X211008Y233865D01*
X210885Y234606*
X210885D02*
X210786Y235372D01*
X210796Y236030*
X210823Y236705*
X210868Y237396*
X210868D02*
X210933Y238102D01*
X210933D02*
X211016Y238820D01*
X211118Y239552*
X211238Y240295*
X211238D02*
X211378Y241047D01*
X211537Y241808*
X211714Y242578*
X211714D02*
X211912Y243353D01*
X212129Y244134*
X212365Y244919*
X212622Y245708*
X212622D02*
X212898Y246498D01*
X213194Y247289*
X213510Y248079*
X213846Y248868*
X214203Y249654*
X214581Y250437*
X214978Y251214*
X215397Y251985*
X215837Y252748*
X216297Y253503*
X216778Y254248*
X217281Y254983*
X217805Y255705*
X218351Y256414*
X218918Y257109*
X219507Y257789*
X220117Y258451*
X220750Y259096*
X221404Y259721*
X220361Y260061*
X219376Y260390*
X218447Y260707*
X217567Y261011*
X216731Y261298*
X215935Y261567*
X215935D02*
X215174Y261815D01*
X215174D02*
X214441Y262040D01*
X213733Y262241*
X213043Y262415*
X212368Y262560*
X211701Y262674*
X211701D02*
X211039Y262754D01*
X211039D02*
X210375Y262798D01*
X209705Y262806*
X209705D02*
X209023Y262772D01*
X208325Y262698*
X207605Y262579*
X206859Y262414*
X206080Y262200*
X205265Y261936*
X204408Y261620*
X203504Y261248*
X202548Y260819*
X201401Y260342*
X201401D02*
X200268Y259951D01*
X199150Y259642*
X198055Y259409*
X196986Y259248*
X195949Y259152*
X194947Y259118*
X193986Y259139*
X193070Y259210*
X192205Y259327*
X191394Y259484*
X190643Y259675*
X189957Y259896*
X189340Y260142*
X188796Y260406*
X188331Y260684*
X187950Y260971*
X187656Y261262*
X187456Y261550*
X187353Y261832*
Y262101*
X187364Y262206*
X187337Y262232*
X187273Y262182*
X187174Y262059*
X187044Y261865*
X187044D02*
X186884Y261602D01*
X186698Y261275*
X186488Y260885*
X186255Y260436*
X186255D02*
X186004Y259930D01*
X185737Y259370*
X185454Y258759*
X185161Y258099*
X184858Y257394*
X184548Y256645*
X184235Y255856*
X183920Y255030*
X183606Y254169*
X183295Y253276*
X182990Y252354*
X182990D02*
X182694Y251406D01*
X182409Y250434*
X182138Y249441*
X181882Y248430*
X181645Y247404*
X181429Y246365*
X181429D02*
X181237Y245317D01*
X181237D02*
X181071Y244261D01*
X180933Y243201*
X180827Y242140*
X180754Y241080*
X180717Y240024*
X180719Y238975*
X180762Y237935*
X180825Y237111*
X180908Y236309*
X181010Y235530*
X181130Y234770*
X181268Y234030*
X181422Y233308*
X181422D02*
X181591Y232600D01*
X181775Y231908*
X181972Y231228*
X182181Y230559*
X182401Y229900*
X182632Y229250*
X182873Y228606*
X183122Y227968*
X183378Y227333*
X183641Y226700*
X183909Y226069*
X183909D02*
X184182Y225436D01*
X184459Y224801*
X184738Y224162*
X185018Y223518*
X185018D02*
X185300Y222867D01*
X185581Y222208*
X185861Y221539*
X186089Y220858*
X204745Y239583D02*
X204982Y239983D01*
X205667Y240342*
X206759Y240498*
X207592Y240342*
X207592D02*
X208182Y239983D01*
X208406Y239583*
X208182Y239054*
X207592Y238648*
X207592D02*
X206759Y238485D01*
X205667Y238648*
X204982Y239054*
X204745Y239583*
X204379Y253313D02*
X204616Y253924D01*
X205301Y254290*
X206392Y254412*
X206392D02*
X207226Y254290D01*
X207816Y253924*
X207816D02*
X208040Y253313D01*
X208040D02*
X207816Y252961D01*
X207816D02*
X207226Y252690D01*
X206392Y252581*
X206392D02*
X205301Y252690D01*
X204616Y252961*
X204379Y253313*
X212800Y257890D02*
X213024Y258243D01*
X213614Y258514*
X214448Y258623*
X215458Y258514*
X216183Y258243*
X216461Y257890*
X216183Y257280*
X215458Y256914*
X214448Y256792*
X213614Y256914*
X213024Y257280*
X212800Y257890*
X188085Y253131D02*
X188309Y253612D01*
X188899Y253931*
X189733Y254046*
X190566Y253931*
X190566D02*
X191157Y253612D01*
X191380Y253131*
X191157Y252696*
X190566Y252466*
X190566D02*
X189733Y252398D01*
X188899Y252466*
X188309Y252696*
X188085Y253131*
X191929Y246723D02*
X192160Y247462D01*
X192798Y247876*
X193760Y248005*
X194641Y247876*
X195319Y247462*
X195591Y246723*
X195319Y246370*
X194641Y246099*
X193760Y245991*
X192798Y246099*
X192160Y246370*
X191929Y246723*
X190734Y225120D02*
X189767Y225242D01*
X189089Y225608*
X188818Y226218*
X189089Y226619*
X189089D02*
X189767Y226978D01*
X190648Y227134*
X191530Y226978*
X192401Y226533*
X196689Y233542D02*
X196920Y234281D01*
X197557Y234694*
X198520Y234823*
X199401Y234694*
X199401D02*
X200079Y234281D01*
X200079D02*
X200302Y233622D01*
X198343Y231942*
X197557Y232158*
X196920Y232789*
X196689Y233542*
X205477Y193265D02*
X205748Y193746D01*
X206426Y194065*
X207307Y194181*
X208189Y194065*
X208867Y193746*
X209138Y193265*
X209138D02*
X208867Y192784D01*
X208189Y192465*
X207307Y192350*
X206426Y192465*
X205748Y192784*
X205477Y193265*
X210054Y198758D02*
X210325Y199368D01*
X211003Y199734*
X211885Y199856*
X212718Y199734*
X212718D02*
X213308Y199368D01*
X213532Y198758*
X213532D02*
X213308Y198310D01*
X212718Y197863*
X212718D02*
X211885Y197659D01*
X211003Y197863*
X210325Y198310*
X210054Y198758*
X204745Y204067D02*
X204982Y204724D01*
X205667Y205179*
X206759Y205348*
X207592Y205179*
X207592D02*
X208182Y204724D01*
X208406Y204067*
X208182Y203761*
X207592Y203578*
X207592D02*
X206759Y203517D01*
X205667Y203578*
X204982Y203761*
X204745Y204067*
X212800Y212122D02*
X213024Y212651D01*
X213614Y213058*
X213614D02*
X214448Y213220D01*
X215248Y213058*
X215248D02*
X215966Y212651D01*
X215966D02*
X216279Y212122D01*
X215966Y211546*
X215966D02*
X215248Y211050D01*
X214448Y210840*
X213614Y211050*
X213024Y211546*
X212800Y212122*
X197604Y191984D02*
X197794Y192432D01*
X197794D02*
X198391Y192879D01*
X199435Y193082*
X200269Y192879*
X200859Y192432*
X200859D02*
X201083Y191984D01*
X200859Y191537*
X200269Y191089*
X199435Y190885*
X198391Y191089*
X197794Y191537*
X197604Y191984*
X205477Y199856D02*
X205741Y200256D01*
X206372Y200615*
X207124Y200771*
X208054Y200615*
X208820Y200256*
X209138Y199856*
X209138D02*
X208820Y199409D01*
X208054Y198961*
X207124Y198758*
X207124D02*
X206372Y198961D01*
X205741Y199409*
X205477Y199856*
X190648Y196927D02*
X190878Y197280D01*
X190878D02*
X191516Y197551D01*
X192479Y197659*
X193489Y197551*
X194214Y197280*
X194214D02*
X194492Y196927D01*
X194492D02*
X194214Y196317D01*
X194214D02*
X193489Y195950D01*
X192479Y195828*
X191516Y195950*
X190878Y196317*
X190878D02*
X190648Y196927D01*
X211885Y218346D02*
X212149Y219086D01*
X212779Y219499*
X212779D02*
X213532Y219628D01*
X214448Y219499*
X214997Y219086*
X215180Y218346*
X214997Y217994*
X214448Y217723*
X213532Y217615*
X213532D02*
X212779Y217723D01*
X212779D02*
X212149Y217994D01*
X211885Y218346*
X185339Y245808D02*
X185563Y246113D01*
X186153Y246296*
X186987Y246357*
X187950Y246296*
X188587Y246113*
X188818Y245808*
X188818D02*
X188587Y245279D01*
X187950Y244872*
X186987Y244709*
X186153Y244872*
X185563Y245279*
X185339Y245808*
X195591Y203151D02*
X195855Y203633D01*
X196486Y203952*
X196486D02*
X197238Y204067D01*
X198120Y203952*
X198120D02*
X198798Y203633D01*
X199069Y203151*
X198798Y202670*
X198120Y202351*
X197238Y202236*
X196486Y202351*
X195855Y202670*
X195591Y203151*
X194675Y256609D02*
X194946Y256961D01*
X195625Y257233*
X196506Y257341*
X197340Y257233*
X197930Y256961*
X198154Y256609*
X197930Y255999*
X197340Y255632*
X196506Y255511*
X195625Y255632*
X194946Y255999*
X194675Y256609*
X200350Y245991D02*
X200574Y246343D01*
X201164Y246615*
X201164D02*
X201998Y246723D01*
X203009Y246615*
X203009D02*
X203734Y246343D01*
X204012Y245991*
X203734Y245672*
X203009Y245272*
X201998Y245075*
X201164Y245272*
X201164D02*
X200574Y245672D01*
X200350Y245991*
X200269Y227934D02*
X200859Y227615D01*
X201083Y227134*
X200859Y226652*
X200205Y226290*
X190466Y238485D02*
X190655Y239013D01*
X191251Y239420*
X191251D02*
X192295Y239583D01*
X193130Y239420*
X193719Y239013*
X193942Y238485*
X193942D02*
X193719Y238037D01*
X193130Y237589*
X192295Y237386*
X191251Y237589*
X191251D02*
X190655Y238037D01*
X190466Y238485*
X184790Y232993D02*
X185068Y233521D01*
X185793Y233928*
X186804Y234091*
X187637Y233928*
X188227Y233521*
X188227D02*
X188451Y232993D01*
X188451D02*
X188227Y232463D01*
X188227D02*
X187637Y232057D01*
X186804Y231894*
X185793Y232057*
X185068Y232463*
X184790Y232993*
X188085Y189604D02*
X188309Y190255D01*
X188899Y190661*
X189733Y190702*
X190777Y190539*
X191374Y190133*
X191564Y189604*
X191374Y189170*
X190777Y188817*
X189733Y188872*
X188899Y188980*
X188309Y189251*
X188085Y189604*
X236583Y234191D02*
X228010Y246860D01*
X199988Y222575*
X199988D02*
X200590Y233924D01*
X200590D02*
X172292Y208391D01*
X172292D02*
X170973Y216026D01*
X170922Y215919*
X170922D02*
X170777Y215608D01*
X170547Y215117*
X170547D02*
X170243Y214465D01*
X169874Y213676*
X169450Y212770*
X168981Y211768*
X168478Y210691*
X167950Y209561*
X167407Y208400*
X166859Y207228*
X166859D02*
X166316Y206066D01*
X165788Y204937*
X165285Y203861*
X164818Y202859*
X164394Y201954*
X164394D02*
X164026Y201165D01*
X163723Y200515*
X163495Y200025*
X163351Y199716*
X163302Y199609*
X163426Y199605*
X163783Y199597*
X164349Y199584*
X165096Y199569*
X166000Y199550*
X167033Y199530*
X167033D02*
X168171Y199507D01*
X169386Y199483*
X170654Y199458*
X171948Y199433*
X173241Y199408*
X174509Y199383*
X175725Y199360*
X175725D02*
X176864Y199339D01*
X177899Y199320*
X178804Y199303*
X179554Y199290*
X180122Y199280*
X180483Y199274*
X180610*
X180320Y199528*
X180320D02*
X179582Y200191D01*
X179582D02*
X178574Y201100D01*
X177477Y202091*
X177477D02*
X176471Y203001D01*
X175735Y203667*
X175450Y203925*
X193834Y215946*
X193244Y207836*
X236583Y234191*
X154948Y222905D02*
X154955Y223700D01*
X154955D02*
X154976Y224491D01*
X155011Y225280*
X155011D02*
X155059Y226064D01*
X155121Y226846*
X155196Y227623*
X155284Y228396*
X155386Y229166*
X155500Y229932*
X155628Y230693*
X155768Y231450*
X155921Y232202*
X156087Y232950*
X156264Y233694*
X156264D02*
X156455Y234432D01*
X156657Y235166*
X156872Y235895*
X157099Y236618*
X157338Y237337*
X157588Y238049*
X157850Y238757*
X158124Y239459*
X158408Y240155*
X158705Y240845*
X159012Y241529*
X159331Y242208*
X159331D02*
X159660Y242880D01*
X159660D02*
X160000Y243545D01*
X160351Y244205*
X160712Y244858*
X160712D02*
X161085Y245504D01*
X161085D02*
X161467Y246143D01*
X161860Y246775*
X162262Y247401*
X162262D02*
X162675Y248019D01*
X162675D02*
X163098Y248630D01*
X163531Y249234*
X163973Y249831*
X164425Y250419*
X164886Y251000*
X165356Y251574*
X165836Y252139*
X166325Y252696*
X166823Y253246*
X167329Y253787*
X167329D02*
X167845Y254319D01*
X168368Y254843*
X168368D02*
X168901Y255358D01*
X169442Y255865*
X169991Y256363*
X170548Y256852*
X170548D02*
X171114Y257332D01*
X171114D02*
X171687Y257802D01*
X172268Y258263*
X172268D02*
X172857Y258715D01*
X172857D02*
X173453Y259157D01*
X173453D02*
X174057Y259589D01*
X174668Y260012*
X174668D02*
X175287Y260425D01*
X175912Y260828*
X176545Y261220*
X177184Y261603*
X177830Y261975*
X178483Y262337*
X179142Y262687*
X179142D02*
X179808Y263028D01*
X180480Y263357*
X181159Y263676*
X181843Y263983*
X182533Y264280*
X182533D02*
X183229Y264564D01*
X183931Y264838*
X184638Y265100*
X185351Y265350*
X186069Y265589*
X186793Y265815*
X187522Y266030*
X188255Y266233*
X188994Y266423*
X189737Y266601*
X190485Y266767*
X190485D02*
X191238Y266920D01*
X191995Y267060*
X192756Y267187*
X193521Y267302*
X194291Y267404*
X194291D02*
X195064Y267492D01*
X195064D02*
X195842Y267567D01*
X196623Y267629*
X197408Y267677*
X198196Y267711*
X198988Y267732*
X199783Y267739*
X200578Y267732*
X201370Y267711*
X202158Y267677*
X202942Y267629*
X202942D02*
X203724Y267567D01*
X204501Y267492*
X205275Y267404*
X205275D02*
X206044Y267302D01*
X206810Y267187*
X207571Y267060*
X208328Y266920*
X209081Y266767*
X209081D02*
X209829Y266601D01*
X210572Y266423*
X211311Y266233*
X212044Y266030*
X212773Y265815*
X213496Y265589*
X214215Y265350*
X214928Y265100*
X215635Y264838*
X216337Y264564*
X217033Y264280*
X217033D02*
X217723Y263983D01*
X218407Y263676*
X219086Y263357*
X219758Y263028*
X220424Y262687*
X221083Y262337*
X221736Y261975*
X222382Y261603*
X223021Y261220*
X223653Y260828*
X223653D02*
X224279Y260425D01*
X224898Y260012*
X225509Y259589*
X226112Y259157*
X226112D02*
X226709Y258715D01*
X226709D02*
X227298Y258263D01*
X227879Y257802*
X228452Y257332*
X228452D02*
X229018Y256852D01*
X229018D02*
X229575Y256363D01*
X230124Y255865*
X230665Y255358*
X231197Y254843*
X231721Y254319*
X232237Y253787*
X232743Y253246*
X233241Y252696*
X233730Y252139*
X234210Y251574*
X234680Y251000*
X235141Y250419*
X235593Y249831*
X236035Y249234*
X236468Y248630*
X236890Y248019*
X236890D02*
X237303Y247401D01*
X237303D02*
X237706Y246775D01*
X238099Y246143*
X238481Y245504*
X238481D02*
X238853Y244858D01*
X238853D02*
X239215Y244205D01*
X239566Y243545*
X239906Y242880*
X239906D02*
X240235Y242208D01*
X240235D02*
X240554Y241529D01*
X240861Y240845*
X241157Y240155*
X241442Y239459*
X241442D02*
X241716Y238757D01*
X241978Y238049*
X242228Y237337*
X242467Y236618*
X242694Y235895*
X242909Y235166*
X243111Y234432*
X243301Y233694*
X243301D02*
X243479Y232950D01*
X243479D02*
X243645Y232202D01*
X243798Y231450*
X243938Y230693*
X244066Y229932*
X244180Y229166*
X244282Y228396*
X244370Y227623*
X244445Y226846*
X244507Y226064*
X244555Y225280*
X244555D02*
X244590Y224491D01*
X244611Y223700*
X244617Y222905*
X244611Y222110*
X244590Y221318*
X244555Y220530*
X244507Y219745*
X244445Y218964*
X244370Y218187*
X244282Y217413*
X244180Y216643*
X244066Y215878*
X244066D02*
X243938Y215117D01*
X243938D02*
X243798Y214359D01*
X243645Y213607*
X243479Y212859*
X243479D02*
X243301Y212115D01*
X243301D02*
X243111Y211377D01*
X242909Y210643*
X242694Y209915*
X242694D02*
X242467Y209191D01*
X242228Y208473*
X241978Y207760*
X241716Y207053*
X241442Y206351*
X241442D02*
X241157Y205655D01*
X240861Y204965*
X240861D02*
X240554Y204280D01*
X240235Y203602*
X239906Y202930*
X239566Y202264*
X239215Y201605*
X238853Y200952*
X238853D02*
X238481Y200306D01*
X238099Y199667*
X238099D02*
X237706Y199034D01*
X237303Y198409*
X237303D02*
X236890Y197790D01*
X236890D02*
X236468Y197179D01*
X236035Y196575*
X235593Y195979*
X235141Y195390*
X234680Y194809*
X234210Y194235*
X233730Y193670*
X233241Y193113*
X232743Y192564*
X232237Y192023*
X231721Y191490*
X231197Y190967*
X231197D02*
X230665Y190451D01*
X230124Y189945*
X230124D02*
X229575Y189446D01*
X229018Y188958*
X228452Y188478*
X227879Y188008*
X227879D02*
X227298Y187546D01*
X226709Y187095*
X226709D02*
X226112Y186652D01*
X226112D02*
X225509Y186220D01*
X224898Y185797*
X224279Y185384*
X223653Y184982*
X223653D02*
X223021Y184589D01*
X222382Y184206*
X221736Y183834*
X221083Y183473*
X220424Y183122*
X219758Y182782*
X219758D02*
X219086Y182452D01*
X218407Y182134*
X217723Y181826*
X217033Y181530*
X216337Y181245*
X215635Y180972*
X214928Y180710*
X214215Y180459*
X213496Y180221*
X212773Y179994*
X212044Y179780*
X212044D02*
X211311Y179577D01*
X210572Y179386*
X209829Y179208*
X209081Y179043*
X208328Y178890*
X207571Y178750*
X206810Y178622*
X206044Y178508*
X206044D02*
X205275Y178406D01*
X204501Y178318*
X203724Y178243*
X203724D02*
X202942Y178181D01*
X202942D02*
X202158Y178133D01*
X201370Y178098*
X200578Y178077*
X199783Y178070*
X198988Y178077*
X198196Y178098*
X197408Y178133*
X196623Y178181*
X195842Y178243*
X195842D02*
X195064Y178318D01*
X195064D02*
X194291Y178406D01*
X193521Y178508*
X193521D02*
X192756Y178622D01*
X191995Y178750*
X191238Y178890*
X190485Y179043*
X189737Y179208*
X188994Y179386*
X188255Y179577*
X187522Y179780*
X187522D02*
X186793Y179994D01*
X186069Y180221*
X185351Y180459*
X184638Y180710*
X183931Y180972*
X183229Y181245*
X182533Y181530*
X181843Y181826*
X181159Y182134*
X180480Y182452*
X179808Y182782*
X179808D02*
X179142Y183122D01*
X179142D02*
X178483Y183473D01*
X177830Y183834*
X177184Y184206*
X176545Y184589*
X175912Y184982*
X175912D02*
X175287Y185384D01*
X174668Y185797*
X174668D02*
X174057Y186220D01*
X173453Y186652*
X173453D02*
X172857Y187095D01*
X172857D02*
X172268Y187546D01*
X172268D02*
X171687Y188008D01*
X171687D02*
X171114Y188478D01*
X170548Y188958*
X169991Y189446*
X169442Y189945*
X169442D02*
X168901Y190451D01*
X168368Y190967*
X168368D02*
X167845Y191490D01*
X167329Y192023*
X167329D02*
X166823Y192564D01*
X166325Y193113*
X165836Y193670*
X165356Y194235*
X164886Y194809*
X164425Y195390*
X163973Y195979*
X163531Y196575*
X163098Y197179*
X162675Y197790*
X162675D02*
X162262Y198409D01*
X162262D02*
X161860Y199034D01*
X161467Y199667*
X161467D02*
X161085Y200306D01*
X160712Y200952*
X160712D02*
X160351Y201605D01*
X160000Y202264*
X159660Y202930*
X159331Y203602*
X159012Y204280*
X158705Y204965*
X158705D02*
X158408Y205655D01*
X158124Y206351*
X157850Y207053*
X157588Y207760*
X157338Y208473*
X157099Y209191*
X156872Y209915*
X156872D02*
X156657Y210643D01*
X156455Y211377*
X156264Y212115*
X156264D02*
X156087Y212859D01*
X155921Y213607*
X155768Y214359*
X155628Y215117*
X155628D02*
X155500Y215878D01*
X155500D02*
X155386Y216643D01*
X155284Y217413*
X155196Y218187*
X155121Y218964*
X155059Y219745*
X155011Y220530*
X154976Y221318*
X154955Y222110*
X154955D02*
X154948Y222905D01*
X0Y0D02*
M02*
